<?xml version="1.0" standalone="no"?>
<!DOCTYPE svg PUBLIC "-//W3C//DTD SVG 20010904//EN"
 "http://www.w3.org/TR/2001/REC-SVG-20010904/DTD/svg10.dtd">
<svg version="1.0" xmlns="http://www.w3.org/2000/svg"
 width="3600.000000pt" height="3600.000000pt" viewBox="0 0 3600.000000 3600.000000"
 preserveAspectRatio="xMidYMid meet">

<g transform="translate(0.000000,3600.000000) scale(0.100000,-0.100000)"
fill="#000000" stroke="none">
<path d="M0 18000 l0 -18000 18000 0 18000 0 0 18000 0 18000 -18000 0 -18000
0 0 -18000z m22350 12940 c376 -16 653 -44 867 -91 119 -26 454 -139 542 -184
176 -89 336 -250 407 -412 33 -74 64 -205 64 -270 0 -137 -110 -300 -315 -465
-239 -192 -697 -456 -1115 -643 -58 -26 -109 -51 -114 -55 -5 -5 -21 -304 -36
-665 -16 -362 -32 -661 -37 -665 -8 -8 -606 -199 -610 -195 -2 1 -12 539 -23
1196 -22 1322 -29 1619 -39 1619 -4 0 -61 -31 -128 -69 l-121 -68 -6 81 c-3
44 -10 245 -16 446 -6 201 -13 384 -16 408 l-6 42 228 0 c126 0 339 -5 474
-10z m-9930 -2474 c617 -1017 1122 -1853 1123 -1859 1 -6 -173 -115 -387 -243
-347 -207 -391 -231 -401 -216 -6 9 -409 688 -895 1507 -486 820 -888 1495
-894 1502 -8 9 -39 -12 -124 -84 -62 -53 -114 -94 -116 -92 -2 2 -35 111 -73
242 l-70 238 355 430 c195 236 356 428 358 426 2 -2 508 -835 1124 -1851z
m5379 1703 c244 -68 445 -129 447 -134 4 -10 -1132 -3774 -1141 -3783 -2 -2
-188 44 -413 104 l-409 108 8 31 c191 727 329 1270 325 1282 -5 12 -1066 1584
-1302 1929 l-83 121 381 227 c210 125 387 225 392 222 6 -2 225 -322 486 -710
360 -536 477 -702 482 -689 4 10 82 317 173 683 91 366 171 682 176 703 6 23
15 37 22 34 7 -2 212 -60 456 -128z m-3148 -384 c104 -15 289 -70 289 -85 0
-6 -142 -368 -315 -806 -174 -438 -313 -799 -311 -801 9 -9 118 47 182 93 141
100 263 298 319 519 10 39 21 74 25 78 4 4 151 -83 328 -193 l321 -201 -5 -32
c-26 -158 -92 -277 -244 -440 -281 -301 -754 -555 -1158 -622 -139 -23 -348
-17 -442 14 -103 33 -187 88 -285 186 -130 131 -205 267 -270 490 -76 262 -85
595 -25 854 39 162 167 359 347 531 335 322 811 481 1244 415z m-3514 -2017
c737 -931 1342 -1698 1346 -1705 5 -7 -114 -107 -335 -279 -189 -147 -350
-273 -359 -281 -15 -13 -124 124 -1089 1369 -590 761 -1079 1390 -1086 1398
-14 14 -20 9 -185 -173 l-34 -38 -97 223 c-53 123 -98 228 -100 235 -3 12 582
943 594 943 3 0 609 -762 1345 -1692z m13899 777 c255 -45 444 -143 625 -324
101 -100 208 -250 255 -358 78 -176 70 -413 -21 -644 -110 -277 -346 -570
-565 -699 -140 -83 -410 -174 -593 -199 -112 -16 -326 -13 -437 4 -422 69
-764 360 -846 720 -26 113 -24 307 4 441 43 202 109 359 222 527 156 234 344
386 567 457 87 28 294 74 373 83 96 11 334 6 416 -8z m-15256 -1350 c140 -132
273 -253 295 -269 22 -17 119 -107 215 -201 96 -94 339 -324 540 -510 201
-186 378 -350 394 -365 l29 -28 -297 -341 c-164 -188 -301 -341 -305 -341 -4
0 -22 16 -41 35 -19 19 -37 35 -42 35 -4 0 -21 -30 -38 -66 -126 -279 -393
-514 -666 -585 -99 -25 -275 -28 -381 -5 -246 53 -476 182 -674 376 -292 287
-393 563 -361 981 23 303 88 518 214 709 48 73 183 219 212 230 15 5 55 106
171 426 83 230 154 427 158 438 6 15 32 -6 165 -131 86 -82 272 -257 412 -388z
m17980 497 c264 -70 457 -186 680 -411 280 -282 480 -639 562 -1003 19 -87 23
-131 23 -288 0 -166 -2 -193 -23 -260 -25 -78 -71 -180 -81 -180 -4 0 -240 56
-526 124 -467 111 -520 126 -516 142 12 64 3 172 -18 228 -27 69 -112 197
-196 296 -86 101 -139 125 -265 124 -116 -1 -199 -22 -303 -76 -114 -59 -184
-134 -249 -263 -46 -94 -52 -113 -56 -185 -4 -77 -3 -84 31 -153 44 -88 67
-113 159 -173 103 -66 102 -67 72 16 -19 55 -23 75 -14 80 21 13 530 193 533
189 17 -23 468 -1120 463 -1127 -3 -6 -409 -311 -902 -678 -636 -473 -901
-664 -910 -658 -30 21 -635 787 -628 794 5 5 117 60 249 123 459 218 565 270
565 276 0 3 -18 15 -41 25 -95 46 -366 303 -491 467 -124 161 -219 358 -252
521 -21 101 -21 300 0 409 60 320 239 637 556 986 292 322 642 558 954 644
142 39 221 49 369 44 115 -3 160 -9 255 -33z m-19792 -3063 c790 -716 1450
-1314 1465 -1329 l29 -27 -193 -412 c-152 -325 -196 -411 -210 -411 -11 0
-825 65 -1810 145 -985 80 -1798 145 -1807 145 -10 -1 -59 -56 -112 -126 -52
-69 -101 -133 -108 -142 -11 -14 -35 -7 -247 79 -129 51 -235 98 -235 103 0 9
557 1065 569 1078 3 4 560 -56 1236 -133 677 -77 1240 -138 1253 -137 17 2
-197 172 -888 707 -501 387 -913 708 -916 712 -4 7 526 1048 534 1049 1 0 649
-586 1440 -1301z m20716 -213 c541 -161 903 -491 1016 -925 49 -187 49 -456 0
-601 -70 -210 -278 -415 -553 -545 -257 -122 -542 -175 -752 -141 -377 62
-676 205 -902 433 -282 285 -392 687 -278 1016 123 351 549 691 975 776 30 6
64 13 75 15 11 3 90 3 175 2 132 -3 168 -8 244 -30z m-10363 -1139 c162 -12
241 -21 299 -32 14 -3 52 -8 84 -11 33 -3 63 -7 67 -9 3 -3 30 -7 59 -10 29
-3 56 -7 60 -10 3 -2 20 -6 36 -9 16 -3 44 -8 63 -11 19 -3 37 -8 40 -10 4 -2
27 -6 51 -10 25 -4 50 -8 57 -9 7 -1 16 -5 19 -9 4 -4 17 -7 28 -7 12 0 59
-12 106 -26 47 -13 96 -27 110 -30 14 -2 32 -7 40 -11 17 -7 26 -10 55 -17 11
-3 79 -26 150 -51 72 -25 137 -48 146 -50 9 -2 25 -8 35 -13 20 -11 64 -28 76
-31 4 -1 42 -17 83 -36 41 -18 75 -32 75 -31 0 2 44 -18 97 -45 54 -27 101
-49 106 -49 5 0 46 -22 93 -50 47 -27 89 -50 95 -50 13 0 198 -106 224 -129
11 -10 54 -37 95 -61 41 -24 77 -47 78 -52 2 -5 20 -17 40 -27 21 -11 48 -29
62 -41 14 -12 37 -28 53 -36 15 -8 27 -18 27 -23 0 -4 12 -13 28 -20 15 -7 34
-19 42 -27 8 -8 64 -53 124 -101 60 -47 117 -93 126 -102 9 -9 59 -54 111
-101 194 -176 440 -435 549 -579 14 -18 30 -38 36 -44 11 -13 161 -216 209
-285 54 -76 152 -235 225 -362 39 -69 75 -132 80 -140 18 -29 133 -268 175
-365 22 -51 45 -104 56 -132 23 -58 32 -79 40 -95 5 -10 9 -23 9 -29 0 -6 6
-25 14 -42 43 -96 191 -609 202 -701 3 -22 7 -43 10 -48 4 -7 17 -73 29 -148
2 -14 6 -39 9 -56 3 -17 8 -48 11 -70 3 -21 7 -48 9 -59 4 -23 23 -188 30
-255 24 -226 24 -783 1 -920 -2 -14 -7 -56 -10 -95 -3 -38 -10 -97 -15 -130
-5 -33 -11 -78 -14 -100 -4 -22 -8 -51 -11 -65 -2 -14 -7 -42 -10 -62 -2 -21
-9 -57 -14 -80 -6 -24 -12 -54 -15 -68 -2 -14 -12 -59 -21 -100 -9 -41 -19
-86 -22 -100 -2 -14 -7 -32 -10 -40 -3 -8 -7 -19 -8 -25 -1 -5 -3 -12 -4 -15
-3 -6 -7 -23 -15 -60 -6 -28 -54 -186 -64 -210 -3 -8 -7 -19 -7 -25 -2 -11
-12 -39 -25 -70 -5 -11 -16 -42 -25 -70 -15 -47 -49 -137 -81 -212 -74 -174
-115 -264 -151 -333 -13 -25 -35 -69 -49 -99 -32 -68 -214 -383 -229 -396 -7
-5 -27 -36 -44 -67 -18 -32 -36 -58 -39 -58 -4 0 -20 -23 -35 -50 -16 -28 -32
-50 -36 -50 -4 0 -15 -16 -24 -35 -9 -19 -21 -35 -26 -35 -5 0 -12 -8 -15 -17
-3 -10 -16 -30 -28 -44 -13 -15 -34 -41 -48 -59 -14 -19 -36 -47 -50 -64 -14
-17 -32 -39 -40 -50 -8 -10 -28 -33 -45 -52 -16 -18 -46 -52 -65 -75 -34 -40
-66 -75 -176 -190 -29 -30 -102 -101 -164 -159 -128 -120 -120 -113 -180 -162
-25 -20 -57 -47 -72 -60 -15 -13 -40 -33 -55 -45 -15 -12 -38 -30 -50 -40 -11
-10 -31 -25 -43 -33 -12 -8 -32 -23 -43 -32 -36 -29 -39 -31 -102 -73 -33 -22
-62 -42 -65 -46 -3 -3 -23 -16 -45 -29 -22 -13 -42 -27 -45 -30 -3 -3 -23 -17
-45 -30 -22 -13 -42 -26 -45 -30 -11 -12 -129 -80 -139 -80 -6 0 -11 -5 -11
-11 0 -5 -4 -7 -10 -4 -5 3 -10 2 -10 -4 0 -5 -10 -13 -22 -17 -12 -3 -26 -11
-32 -16 -24 -21 -440 -228 -460 -228 -2 0 -37 -15 -78 -34 -73 -35 -116 -51
-219 -86 -31 -10 -65 -23 -75 -29 -11 -5 -66 -24 -124 -41 -58 -18 -116 -36
-130 -40 -14 -5 -45 -15 -70 -21 -25 -7 -49 -14 -55 -15 -62 -18 -231 -57
-295 -69 -14 -3 -36 -7 -50 -10 -89 -19 -236 -43 -310 -50 -36 -4 -67 -8 -70
-10 -23 -14 -415 -38 -620 -38 -149 -1 -515 16 -515 23 0 1 -25 3 -55 5 -52 3
-96 8 -165 21 -16 3 -46 7 -65 9 -19 2 -35 4 -35 5 0 1 -16 4 -35 6 -38 4 -75
11 -75 14 0 1 -11 3 -25 5 -39 4 -95 14 -111 19 -8 3 -27 8 -44 11 -16 3 -34
7 -40 9 -5 1 -37 8 -70 15 -33 7 -67 16 -75 19 -19 7 -18 6 -65 16 -22 4 -44
11 -50 14 -5 4 -14 7 -20 9 -39 8 -56 13 -105 28 -30 9 -62 20 -70 24 -9 5
-31 12 -50 16 -19 4 -39 11 -45 15 -5 4 -26 11 -45 15 -19 4 -45 14 -57 22
-13 9 -23 12 -23 8 0 -4 -11 0 -25 9 -14 9 -25 14 -25 12 0 -3 -30 8 -67 25
-38 17 -68 29 -69 27 -1 -3 -43 17 -107 49 -15 8 -36 16 -46 18 -10 2 -37 15
-60 29 -23 15 -41 24 -41 21 0 -14 -502 262 -525 289 -5 6 -41 31 -80 54 -77
47 -132 84 -155 105 -8 7 -28 21 -43 31 -16 9 -36 24 -45 31 -9 8 -35 28 -57
44 -57 43 -82 63 -113 89 -15 12 -31 26 -37 30 -139 108 -426 383 -565 541
-36 41 -70 79 -75 85 -36 38 -165 199 -238 297 -190 257 -330 487 -481 794
-106 215 -120 247 -191 430 -31 83 -61 159 -65 170 -5 11 -14 38 -20 60 -6 22
-15 49 -20 60 -22 49 -140 513 -155 610 -2 11 -9 47 -15 80 -17 92 -18 97 -24
150 -4 28 -9 61 -11 75 -3 14 -7 48 -10 75 -3 28 -7 66 -10 85 -20 148 -28
786 -12 935 4 39 10 97 13 130 3 33 9 92 14 130 5 39 11 88 14 110 3 22 7 47
10 55 3 8 7 33 10 55 2 22 7 47 10 55 3 8 7 33 10 55 3 22 13 72 22 110 9 39
20 88 24 111 10 47 58 222 67 244 3 8 7 20 8 25 1 6 3 12 4 15 2 3 4 13 7 23
2 9 5 23 7 30 8 33 40 125 73 212 10 26 9 26 19 60 4 17 11 35 16 40 4 6 15
33 25 60 9 28 32 84 51 125 52 114 63 140 61 143 -1 1 12 27 30 58 18 31 32
61 32 67 0 5 23 48 50 95 28 47 50 90 50 97 0 14 108 201 124 215 7 6 34 48
61 95 27 46 56 92 65 100 8 9 24 32 35 53 11 20 23 37 27 37 4 0 17 18 28 40
11 22 25 40 30 40 5 0 11 8 14 18 3 9 16 29 28 43 28 33 62 75 91 113 21 29
52 65 146 175 104 121 267 288 391 401 40 36 90 81 111 101 21 20 39 35 39 33
0 -2 14 10 32 26 17 17 45 41 61 53 16 12 34 27 40 32 7 6 32 26 57 45 59 46
68 53 83 65 7 6 28 20 47 32 19 12 45 31 58 43 12 11 22 17 22 13 0 -4 4 -3 8
3 4 5 25 21 47 34 22 13 42 27 45 30 3 3 23 17 45 30 22 13 42 27 45 30 9 11
223 137 300 177 41 21 77 40 80 43 3 3 39 21 80 40 41 19 77 38 80 42 3 3 18
10 33 13 15 4 27 11 27 16 0 5 7 9 15 9 9 0 38 11 65 25 27 14 56 25 65 25 8
0 15 4 15 9 0 5 20 15 45 22 25 7 45 16 45 20 0 3 6 6 13 7 13 1 88 26 122 41
11 5 43 17 70 26 28 10 64 24 82 31 17 8 37 14 45 14 7 1 31 8 53 16 49 18 39
15 220 62 83 22 161 44 175 49 14 6 31 8 38 5 8 -2 33 3 58 13 24 9 50 15 57
12 6 -2 23 0 36 5 13 5 42 11 65 13 22 2 52 7 66 10 84 17 193 34 273 41 34 3
73 7 87 10 14 2 72 6 129 9 58 3 107 7 109 10 5 5 565 -2 643 -8z m-12881
-6434 c0 -123 0 -124 23 -121 18 2 22 10 25 48 2 25 6 48 10 52 4 3 30 8 57 9
l50 3 5 -54 c4 -47 8 -55 25 -55 19 0 20 8 25 120 5 112 6 120 25 120 11 0 26
-4 32 -8 7 -4 21 -3 32 2 11 6 74 10 145 9 l126 -2 0 -123 c0 -115 1 -123 19
-123 25 0 33 26 30 90 -3 56 8 73 42 68 22 -3 24 -8 29 -78 4 -61 8 -75 23
-78 15 -3 17 6 17 82 0 75 -3 88 -22 106 -17 16 -31 20 -55 16 -30 -4 -33 -2
-33 20 0 24 1 24 80 22 l79 -2 3 -120 c3 -113 4 -121 23 -121 19 0 20 8 23
122 l3 122 290 0 290 0 -3 -22 c-2 -18 -8 -21 -34 -19 -24 3 -38 -4 -63 -28
-26 -27 -31 -39 -31 -80 0 -40 5 -54 30 -80 27 -29 35 -32 68 -26 20 3 47 6
60 6 22 0 22 2 22 124 l0 125 918 -2 917 -2 5 -78 c5 -79 21 -103 30 -45 5 30
8 33 45 36 49 4 75 26 75 64 0 25 3 28 33 28 l33 0 -4 -58 c-4 -56 -3 -60 28
-85 17 -15 38 -27 46 -27 30 0 71 30 84 59 11 28 11 45 -1 91 -3 10 5 14 31
15 l35 0 3 -77 c3 -70 5 -78 22 -78 16 0 20 7 20 35 0 48 23 46 55 -5 14 -22
29 -40 35 -40 18 0 21 20 6 42 -20 29 -20 52 0 69 8 7 14 22 11 34 -3 20 1 22
55 24 l58 2 0 -79 c0 -59 4 -81 14 -85 23 -9 26 2 26 83 l0 77 60 1 60 0 0
-79 c0 -74 1 -79 23 -85 36 -8 100 -1 104 13 3 8 -12 13 -44 15 -41 3 -48 6
-51 26 -3 22 1 25 51 36 39 9 33 24 -10 28 -30 2 -38 7 -38 23 0 18 7 20 73
21 l72 2 0 -79 c0 -43 4 -80 8 -83 15 -9 35 12 29 33 -3 12 1 26 10 33 16 13
15 13 65 -54 12 -18 19 -20 28 -11 10 9 9 16 -4 34 -20 29 -20 53 -1 69 8 7
15 22 15 35 0 20 4 22 80 22 l80 1 0 -79 c0 -72 2 -79 20 -79 16 0 20 7 20 35
0 48 23 46 55 -5 14 -22 29 -40 35 -40 18 0 21 20 6 42 -20 28 -20 52 -1 68 8
7 15 23 15 36 0 22 4 24 56 24 63 0 62 6 19 -102 -13 -32 -20 -60 -15 -63 14
-9 38 5 43 26 8 29 58 25 86 -7 35 -40 44 -17 20 51 -11 33 -25 67 -30 77 -8
15 -3 17 46 16 l55 -2 0 -78 c0 -71 2 -78 20 -78 17 0 20 7 20 50 0 57 20 69
39 22 6 -15 22 -41 35 -57 36 -44 50 -24 47 68 -2 58 1 74 12 74 10 0 18 -24
27 -86 6 -47 23 -142 37 -211 14 -69 26 -134 28 -145 1 -11 10 -49 20 -85 9
-36 19 -76 20 -90 4 -28 86 -329 110 -405 9 -27 34 -106 56 -175 22 -69 47
-143 55 -165 9 -22 20 -49 24 -60 46 -124 107 -279 123 -315 10 -25 26 -60 33
-77 69 -162 189 -411 262 -545 20 -36 52 -95 71 -130 18 -35 41 -74 51 -88 9
-14 20 -32 23 -40 4 -8 17 -32 29 -52 13 -20 43 -69 68 -110 93 -152 304 -459
382 -553 9 -11 51 -65 94 -120 194 -250 526 -609 750 -811 42 -38 93 -85 114
-104 50 -47 84 -76 150 -130 30 -24 63 -51 72 -60 10 -8 29 -24 44 -35 14 -11
37 -29 50 -40 38 -32 64 -51 149 -115 44 -32 89 -66 100 -75 20 -15 29 -22
116 -79 24 -15 49 -34 54 -40 6 -7 36 -27 67 -45 32 -18 60 -36 63 -41 3 -5
58 -39 123 -76 64 -38 122 -73 127 -80 13 -14 176 -108 192 -110 8 -1 65 -32
127 -68 62 -36 118 -66 124 -66 6 0 37 -16 69 -35 32 -19 62 -35 67 -35 5 0
52 -21 105 -46 156 -74 213 -99 316 -139 39 -15 82 -33 98 -41 15 -9 27 -12
27 -8 0 3 11 -1 25 -10 14 -9 25 -14 25 -11 0 3 14 -1 30 -10 16 -9 30 -13 30
-9 0 4 6 1 14 -5 8 -7 22 -14 32 -16 16 -4 297 -96 344 -113 19 -6 29 -9 60
-17 33 -8 42 -11 60 -18 35 -14 160 -45 160 -40 0 3 6 1 13 -5 6 -5 26 -13 42
-15 17 -3 39 -8 50 -11 11 -3 52 -12 90 -21 62 -14 101 -22 185 -40 13 -2 42
-7 64 -11 22 -3 44 -8 48 -10 4 -2 26 -7 50 -10 24 -3 49 -7 57 -10 8 -3 30
-7 50 -10 20 -3 59 -9 86 -14 28 -6 71 -12 98 -15 26 -2 62 -7 80 -10 17 -3
55 -7 84 -9 28 -3 67 -7 85 -10 36 -6 172 -17 258 -22 242 -12 319 -15 495
-15 193 0 390 6 505 15 30 3 91 7 135 11 44 3 91 7 105 10 14 2 52 7 85 10 33
3 71 7 85 10 41 7 101 15 155 21 136 13 615 108 710 139 22 8 103 30 180 50
77 20 156 42 175 50 19 8 60 21 90 29 76 21 144 43 215 72 33 13 63 24 67 24
4 0 19 5 35 12 15 6 30 12 33 12 11 2 153 59 205 81 17 7 59 25 95 40 36 15
88 37 115 50 135 61 178 79 188 77 4 -1 7 3 7 8 0 6 7 10 15 10 8 0 15 5 15
10 0 6 5 10 12 10 13 0 120 49 128 59 4 5 123 68 220 116 11 5 20 13 20 18 0
4 5 5 10 2 6 -3 10 -2 10 3 0 6 11 13 25 16 14 4 25 11 25 16 0 6 5 10 11 10
14 0 133 71 137 82 2 4 8 6 13 2 5 -3 9 -1 9 5 0 5 8 12 18 15 16 6 145 85
167 103 6 5 28 20 50 33 22 13 42 27 45 30 3 3 23 17 45 30 22 13 48 33 58 44
9 10 17 16 17 12 0 -4 6 -2 13 4 6 6 30 24 52 40 22 16 45 33 50 38 6 4 26 19
45 32 19 14 40 30 46 35 6 6 22 17 34 25 12 8 32 23 43 34 12 10 54 44 92 74
39 31 76 61 83 67 18 15 62 53 132 115 34 30 82 73 107 95 74 65 403 395 468
469 33 37 76 85 95 106 19 20 51 57 70 80 19 23 42 51 50 60 31 37 46 56 80
100 19 24 40 50 45 56 6 6 21 26 35 44 14 18 30 38 36 44 5 6 19 26 29 44 11
17 23 32 27 32 5 0 16 16 25 35 9 19 20 35 25 35 4 0 14 12 22 28 8 15 24 38
36 52 12 14 31 42 41 63 11 20 23 37 27 37 4 0 22 27 40 59 18 33 36 61 41 63
4 2 36 53 71 113 35 61 71 119 81 130 24 28 110 177 114 198 2 9 28 59 58 110
59 102 195 378 249 507 8 19 22 51 30 70 9 19 33 76 53 125 21 50 41 95 46
101 5 6 6 13 3 17 -3 3 2 17 11 31 10 14 14 26 10 26 -4 0 0 11 9 25 9 14 14
25 11 25 -3 0 1 13 10 30 8 16 15 32 15 35 1 3 2 10 5 17 2 7 16 49 30 93 15
44 29 87 32 95 6 14 9 24 16 53 18 67 39 135 46 147 11 20 25 82 23 96 -1 6 4
17 12 23 12 10 16 8 21 -8 3 -12 15 -21 26 -21 23 0 24 8 4 34 -19 25 -19 50
0 66 18 15 19 49 1 72 -11 15 -10 28 2 80 8 35 17 70 20 78 3 8 7 25 9 38 2
12 7 32 12 44 7 19 10 15 22 -26 17 -58 34 -75 54 -55 11 11 75 170 75 187 0
2 -10 2 -22 0 -19 -2 -26 -14 -38 -61 -8 -31 -19 -56 -25 -54 -30 10 -48 114
-32 182 4 17 10 50 13 75 3 25 8 48 10 51 1 3 6 25 9 50 3 24 8 53 10 64 2 11
4 25 4 31 1 8 1125 11 4124 10 l4122 -1 -1 -45 c-1 -25 -4 -74 -8 -110 -3 -36
-8 -96 -11 -135 -9 -100 -21 -224 -29 -284 -3 -20 -8 -61 -11 -91 -3 -30 -12
-104 -19 -165 -8 -60 -17 -139 -21 -174 -3 -36 -7 -67 -9 -70 -2 -3 -7 -31
-10 -62 -7 -57 -11 -81 -22 -131 -3 -15 -7 -48 -9 -73 -3 -25 -6 -49 -9 -54
-3 -4 -8 -34 -11 -66 -4 -32 -10 -68 -15 -80 -5 -12 -7 -31 -6 -41 2 -11 0
-28 -5 -40 -4 -11 -10 -38 -13 -60 -6 -36 -8 -50 -22 -114 -2 -14 -7 -40 -9
-59 -3 -18 -8 -38 -11 -43 -3 -5 -7 -26 -9 -46 -2 -20 -11 -71 -20 -112 -21
-94 -35 -158 -41 -190 -3 -14 -10 -43 -16 -65 -5 -22 -12 -51 -15 -65 -2 -13
-13 -63 -25 -110 -11 -47 -21 -92 -23 -100 -1 -8 -7 -26 -12 -40 -6 -14 -9
-29 -6 -33 3 -4 -1 -14 -7 -22 -7 -8 -10 -15 -7 -15 3 0 -6 -42 -20 -92 -14
-51 -27 -100 -28 -108 -1 -8 -5 -22 -8 -30 -6 -14 -24 -82 -34 -125 -7 -34
-11 -50 -14 -55 -1 -3 -3 -9 -4 -15 -1 -5 -5 -17 -8 -25 -3 -8 -13 -42 -22
-75 -9 -33 -19 -67 -22 -75 -3 -8 -7 -19 -8 -25 -1 -5 -3 -12 -4 -15 -2 -3 -4
-13 -7 -22 -7 -29 -11 -42 -17 -58 -3 -8 -10 -31 -15 -50 -7 -31 -12 -36 -48
-40 l-39 -5 -1 -115 c0 -114 -7 -163 -27 -187 -5 -7 -6 -13 -1 -13 5 0 -2 -7
-14 -16 -34 -23 -55 -71 -48 -109 6 -30 -30 -163 -63 -240 -5 -11 -19 -47 -31
-80 -12 -33 -26 -69 -30 -80 -4 -11 -18 -47 -30 -80 -12 -33 -28 -73 -35 -90
-8 -16 -23 -57 -35 -90 -12 -33 -28 -75 -36 -92 -8 -18 -21 -49 -29 -68 -13
-33 -21 -51 -55 -130 -7 -16 -14 -34 -16 -40 -3 -15 -189 -435 -207 -470 -37
-69 -117 -241 -117 -249 0 -5 -14 -31 -31 -59 -17 -28 -32 -58 -34 -68 -2 -10
-20 -46 -39 -79 -20 -34 -36 -66 -36 -71 0 -6 -18 -41 -39 -77 -21 -37 -46
-84 -54 -104 -9 -20 -35 -70 -58 -110 -24 -40 -64 -113 -89 -163 -61 -119
-289 -517 -305 -530 -6 -5 -44 -66 -84 -135 -41 -69 -79 -129 -85 -135 -6 -5
-33 -48 -60 -95 -27 -46 -54 -90 -62 -97 -7 -7 -27 -39 -45 -70 -18 -32 -38
-62 -44 -68 -7 -5 -22 -28 -35 -50 -13 -22 -30 -47 -37 -55 -8 -8 -28 -37 -46
-64 -82 -125 -139 -207 -159 -228 -10 -10 -18 -22 -18 -27 0 -6 -10 -21 -22
-36 -13 -14 -39 -48 -58 -76 -19 -28 -45 -63 -57 -77 -13 -13 -23 -28 -23 -32
0 -3 -8 -15 -17 -26 -10 -10 -35 -42 -56 -69 -20 -28 -44 -59 -52 -70 -9 -11
-29 -38 -46 -60 -35 -48 -57 -76 -84 -110 -11 -13 -29 -36 -40 -50 -11 -14
-29 -37 -40 -50 -11 -13 -29 -36 -40 -50 -11 -14 -29 -37 -40 -49 -11 -13 -36
-43 -55 -66 -19 -24 -42 -50 -50 -60 -8 -10 -26 -32 -40 -50 -14 -18 -38 -48
-55 -67 -16 -18 -39 -45 -50 -59 -11 -14 -36 -42 -55 -63 -19 -21 -55 -61 -80
-90 -25 -28 -58 -67 -75 -85 -16 -19 -52 -59 -80 -90 -27 -32 -81 -90 -120
-131 -38 -40 -100 -106 -137 -144 -36 -39 -71 -71 -77 -71 -5 0 -11 21 -13 48
-3 40 -6 47 -25 50 -22 3 -23 1 -23 -85 l0 -88 -45 -48 c-50 -53 -58 -49 -53
24 3 39 7 46 36 58 31 14 41 34 23 45 -4 3 -31 3 -60 -1 l-51 -6 0 -113 c0
-87 -3 -116 -15 -126 -8 -7 -83 -79 -167 -161 -84 -81 -181 -174 -215 -207
-35 -34 -63 -58 -63 -56 0 5 -54 -45 -171 -157 -21 -20 -39 -34 -39 -31 0 3
-20 -15 -45 -40 -25 -26 -45 -44 -45 -41 0 3 -11 -4 -23 -17 -13 -13 -37 -34
-53 -48 -44 -38 -147 -124 -159 -132 -5 -5 -25 -20 -42 -35 -18 -16 -49 -41
-68 -58 -20 -16 -49 -41 -64 -55 -16 -14 -39 -32 -51 -40 -12 -8 -30 -22 -40
-30 -10 -8 -28 -22 -40 -30 -13 -8 -33 -25 -45 -37 -13 -12 -26 -19 -29 -16
-3 4 -6 2 -6 -4 0 -6 -35 -37 -77 -69 -43 -31 -81 -62 -85 -68 -4 -6 -8 -8 -8
-4 0 4 -10 -3 -23 -15 -13 -12 -33 -29 -46 -37 -24 -16 -50 -35 -81 -60 -10
-8 -28 -22 -41 -30 -12 -8 -56 -40 -98 -70 -42 -30 -87 -63 -101 -71 -14 -9
-36 -27 -50 -39 -14 -12 -38 -29 -54 -37 -16 -8 -41 -26 -54 -38 -14 -13 -40
-32 -59 -42 -18 -9 -33 -21 -33 -26 0 -4 -4 -5 -10 -2 -5 3 -10 2 -10 -2 0 -5
-15 -17 -32 -28 -18 -10 -37 -23 -43 -27 -20 -17 -144 -97 -173 -112 -17 -9
-36 -22 -44 -29 -7 -7 -32 -24 -55 -37 -24 -13 -43 -27 -43 -31 0 -3 -15 -13
-32 -20 -18 -7 -39 -19 -46 -26 -8 -8 -28 -21 -45 -30 -18 -9 -34 -19 -37 -22
-3 -4 -25 -17 -49 -29 -24 -13 -50 -29 -58 -37 -8 -8 -21 -15 -29 -15 -8 0
-14 -5 -14 -11 0 -5 -4 -7 -10 -4 -5 3 -10 2 -10 -3 0 -6 -19 -19 -43 -31 -57
-30 -101 -55 -107 -62 -4 -6 -35 -23 -119 -68 -14 -8 -28 -17 -31 -21 -3 -3
-20 -12 -37 -19 -18 -8 -33 -16 -33 -20 0 -6 -64 -34 -66 -29 0 2 -8 -5 -18
-14 -10 -10 -23 -18 -31 -18 -7 0 -15 -4 -17 -8 -3 -7 -137 -82 -233 -130 -16
-9 -32 -18 -35 -21 -9 -10 -225 -115 -232 -113 -5 1 -8 -2 -8 -7 0 -5 -13 -12
-30 -16 -16 -4 -30 -10 -30 -15 0 -5 -13 -11 -30 -15 -16 -4 -30 -11 -30 -16
0 -5 -4 -9 -10 -9 -10 0 -201 -91 -210 -100 -3 -3 -18 -10 -35 -16 -71 -28
-140 -60 -143 -66 -2 -5 -8 -8 -14 -8 -5 0 -32 -11 -60 -25 -27 -14 -56 -25
-64 -25 -8 0 -14 -5 -14 -12 0 -6 -3 -9 -6 -5 -4 3 -25 -4 -48 -15 -64 -34
-145 -66 -151 -60 -3 3 -5 0 -5 -6 0 -7 -6 -12 -14 -12 -7 0 -47 -15 -89 -34
-41 -19 -78 -32 -81 -29 -3 4 -6 1 -6 -5 0 -7 -7 -12 -15 -12 -9 0 -35 -9 -57
-20 -23 -11 -45 -20 -50 -20 -4 0 -38 -14 -75 -31 -38 -17 -72 -32 -78 -33 -5
-1 -14 -4 -20 -7 -5 -4 -37 -14 -70 -24 -33 -11 -62 -21 -65 -24 -7 -8 -102
-43 -117 -44 -7 0 -13 -4 -13 -9 0 -4 -6 -8 -14 -8 -8 0 -27 -5 -43 -12 -15
-6 -30 -12 -33 -13 -56 -16 -143 -46 -157 -54 -15 -8 -100 -37 -138 -48 -32
-8 -115 -37 -143 -49 -42 -18 -56 -18 -72 1 -9 11 -27 15 -59 13 -43 -3 -46
-5 -49 -33 -4 -33 -25 -55 -55 -55 -16 0 -18 6 -15 42 2 34 0 43 -14 46 -15 3
-18 -4 -18 -51 0 -48 -3 -55 -22 -61 -56 -14 -60 -10 -56 51 2 49 0 58 -14 61
-16 3 -18 -5 -18 -62 0 -73 0 -73 -78 -97 l-53 -17 3 71 c3 71 3 72 32 77 16
3 31 11 34 18 3 9 -17 12 -77 12 -82 0 -110 -15 -51 -26 l30 -6 0 -78 0 -77
-42 -10 c-24 -6 -119 -32 -213 -58 -274 -75 -348 -94 -385 -100 -19 -3 -69
-15 -110 -26 -41 -11 -90 -22 -107 -24 -18 -2 -49 -9 -70 -15 -21 -6 -51 -13
-68 -16 -28 -4 -60 -12 -95 -21 -8 -3 -26 -6 -40 -8 -14 -3 -32 -6 -40 -8 -8
-2 -26 -7 -40 -10 -14 -4 -38 -8 -55 -11 -16 -2 -37 -6 -45 -9 -14 -5 -49 -11
-125 -22 -16 -2 -64 -10 -105 -19 -41 -8 -102 -20 -135 -26 -33 -5 -71 -12
-85 -15 -14 -3 -45 -7 -70 -10 -25 -3 -58 -8 -74 -11 -16 -3 -40 -8 -55 -9
-70 -8 -118 -15 -170 -25 -31 -5 -78 -12 -106 -15 -27 -3 -59 -7 -70 -9 -11
-2 -49 -7 -85 -11 -36 -4 -68 -9 -72 -11 -3 -2 -45 -7 -92 -10 -47 -3 -96 -7
-108 -9 -13 -3 -52 -7 -88 -10 -36 -3 -76 -8 -90 -10 -14 -2 -59 -6 -100 -10
-132 -10 -199 -15 -265 -21 -36 -3 -109 -7 -163 -9 -53 -2 -122 -7 -152 -10
-241 -23 -1391 -24 -1580 0 -19 2 -93 7 -165 10 -181 9 -252 14 -308 21 -27 3
-76 8 -110 9 -34 2 -84 7 -112 10 -27 4 -68 8 -90 9 -22 1 -65 6 -95 11 -30 4
-71 9 -90 11 -53 4 -126 12 -220 25 -47 7 -96 13 -110 15 -14 1 -25 3 -25 4 0
1 -15 3 -34 5 -40 4 -97 13 -126 19 -11 2 -47 7 -80 11 -32 3 -62 8 -66 11 -3
2 -27 6 -53 8 -26 3 -50 7 -54 10 -4 2 -34 7 -67 11 -61 6 -100 12 -100 15 0
1 -12 4 -27 6 -16 2 -40 6 -55 8 -16 2 -28 5 -28 6 0 3 -38 9 -90 16 -27 4
-53 8 -56 10 -4 2 -24 7 -45 10 -48 8 -69 12 -69 14 0 2 -21 6 -69 14 -21 3
-41 8 -45 10 -3 3 -26 7 -51 11 -25 4 -47 8 -50 10 -4 2 -53 14 -111 25 -132
28 -134 28 -134 30 0 2 -25 8 -65 16 -46 8 -52 10 -70 17 -8 4 -26 9 -40 11
-40 8 -65 14 -104 24 -20 6 -36 8 -36 5 0 -3 -6 -1 -12 5 -13 10 -92 28 -94
21 0 -2 -7 1 -15 8 -8 6 -32 14 -54 18 -22 4 -47 9 -55 12 -18 7 -27 10 -60
18 -33 8 -42 11 -60 18 -13 5 -258 74 -285 80 -5 2 -14 5 -20 9 -5 3 -26 9
-45 13 -19 4 -39 10 -45 13 -5 4 -14 7 -20 9 -5 1 -20 4 -33 7 -12 3 -28 8
-35 13 -6 4 -16 8 -22 10 -43 9 -55 13 -88 27 -20 8 -37 13 -37 11 0 -2 -17 3
-37 11 -33 14 -45 18 -88 27 -5 2 -15 5 -20 9 -6 3 -39 16 -75 27 -36 12 -72
24 -80 27 -8 3 -16 5 -18 4 -1 0 -16 7 -32 15 -16 8 -33 16 -37 16 -14 2 -37
10 -63 22 -14 6 -27 11 -30 12 -41 10 -159 54 -192 71 -15 8 -31 15 -35 15
-13 -1 -45 9 -78 24 -16 7 -41 17 -55 23 -14 5 -38 15 -55 23 -16 7 -32 13
-35 13 -17 3 -125 49 -172 73 -16 8 -28 11 -28 8 0 -4 -16 3 -35 15 -19 12
-35 19 -35 16 0 -4 -13 0 -30 9 -16 8 -31 14 -32 13 -2 -1 -21 7 -43 19 -46
23 -105 49 -120 52 -5 1 -29 13 -52 27 -24 14 -43 22 -43 18 0 -3 -21 7 -47
22 -27 15 -49 26 -51 25 -2 -2 -24 7 -50 19 -26 13 -54 26 -62 30 -19 8 -60
29 -128 63 -28 15 -56 27 -62 27 -5 0 -32 14 -60 30 -28 16 -56 30 -61 30 -6
0 -38 16 -72 36 -34 20 -68 37 -77 39 -9 2 -44 19 -78 40 -34 20 -79 43 -100
52 -20 8 -83 42 -140 75 -56 32 -122 67 -145 77 -54 24 -525 297 -552 320 -11
10 -72 48 -135 85 -63 37 -136 82 -162 99 -67 45 -132 86 -201 128 -33 20 -62
41 -66 46 -3 5 -28 22 -56 38 -27 15 -54 33 -60 40 -5 6 -30 24 -55 39 -25 15
-72 47 -105 71 -33 24 -77 53 -97 65 -21 11 -38 25 -38 30 0 5 -8 11 -17 14
-10 3 -34 19 -53 36 -19 16 -38 30 -41 30 -6 0 -29 17 -104 75 -11 8 -56 42
-100 75 -77 57 -99 74 -148 112 -12 10 -51 40 -87 68 -36 27 -72 56 -80 62
-24 22 -76 62 -105 83 -15 11 -35 27 -44 35 -9 9 -41 36 -71 60 -30 24 -62 51
-71 60 -10 8 -36 31 -60 50 -23 19 -47 40 -53 45 -6 6 -36 30 -66 55 -30 25
-68 59 -86 75 -17 17 -55 50 -84 75 -62 52 -67 56 -191 170 -51 47 -122 112
-158 145 -149 136 -743 740 -843 857 -10 13 -40 46 -66 73 -27 28 -75 81 -107
120 -33 38 -69 79 -80 91 -11 12 -36 41 -56 65 -21 24 -56 67 -79 94 -23 28
-49 59 -59 70 -24 30 -114 138 -126 151 -5 6 -17 22 -25 34 -8 12 -21 28 -28
36 -8 8 -9 15 -2 19 17 11 12 168 -7 206 -35 70 -119 119 -204 119 l-57 0 -59
81 c-32 44 -63 86 -68 92 -6 7 -32 41 -58 77 -26 36 -51 70 -55 75 -8 10 -51
71 -149 214 -72 105 -274 408 -302 454 -19 31 -20 37 -7 37 13 0 16 12 16 60
0 55 2 59 18 49 9 -6 30 -33 45 -61 19 -34 33 -48 45 -46 15 3 17 17 17 98 0
78 -3 95 -15 95 -11 0 -16 -15 -20 -58 l-5 -59 -21 29 c-11 15 -29 43 -38 61
-11 21 -23 32 -34 30 -14 -3 -18 -19 -22 -98 l-5 -95 -47 72 c-27 40 -48 75
-48 78 0 4 -14 26 -30 50 -16 24 -30 47 -30 51 0 4 -11 22 -25 40 -14 18 -30
43 -35 56 -6 13 -24 43 -40 68 -17 25 -37 59 -46 75 -8 17 -26 48 -39 70 -14
22 -28 47 -31 55 -4 8 -15 26 -24 40 -9 14 -35 59 -57 100 -98 183 -139 259
-170 315 -28 50 -302 602 -348 700 -51 109 -105 227 -105 230 0 2 -13 32 -29
67 -51 112 -118 270 -181 428 -34 85 -65 165 -71 178 -26 63 -76 194 -104 272
-14 41 -31 86 -36 100 -6 13 -19 51 -30 85 -11 33 -24 69 -29 80 -5 11 -36
103 -69 205 -33 102 -65 199 -72 215 -6 17 -17 55 -25 85 -8 30 -21 71 -29 90
-8 19 -26 80 -40 135 -14 55 -32 116 -39 135 -18 46 -128 457 -132 494 -2 16
-17 79 -33 140 -38 144 -63 252 -66 279 -2 12 -8 41 -14 65 -7 24 -14 55 -16
70 -2 15 -20 105 -40 201 -20 95 -34 175 -32 177 2 2 17 -3 33 -11 28 -14 74
-11 74 5 0 4 -21 16 -46 26 -55 23 -79 53 -88 114 -4 25 -10 58 -13 74 -3 19
3 47 17 75 17 36 32 51 68 69 43 20 61 22 207 22 184 0 208 -7 262 -78 28 -36
33 -52 33 -95 -1 -84 -58 -178 -115 -189 -11 -2 -20 -10 -20 -18 0 -25 38 -21
79 8 58 40 86 100 86 182 0 87 -14 127 -59 168 -64 59 -72 61 -274 63 l-186 2
-48 -39 c-26 -21 -53 -45 -59 -53 -9 -11 -11 -11 -11 0 -1 8 -8 57 -17 109 -8
52 -18 115 -22 140 -3 25 -7 56 -9 70 -6 41 -15 113 -20 155 -2 22 -7 56 -10
75 -13 78 -22 159 -30 245 -3 39 -8 77 -10 85 -2 8 -7 51 -11 95 -3 44 -8 98
-10 120 -7 77 -14 161 -20 241 l-5 81 1485 1 1486 0 0 -125z m170 82 l0 -45
-60 0 -60 0 0 45 0 45 60 0 60 0 0 -45z m3242 28 c17 -21 1 -43 -32 -43 -32 0
-47 18 -36 45 6 18 52 16 68 -2z m218 2 c6 -3 10 -28 10 -55 0 -40 -4 -51 -21
-60 -32 -18 -59 12 -59 65 0 22 5 46 11 52 11 11 39 10 59 -2z m221 -2 c17
-17 -6 -43 -37 -43 -20 0 -24 5 -24 28 0 24 4 29 25 28 14 -1 30 -7 36 -13z
m603 2 c10 -26 -5 -45 -35 -45 -25 0 -29 4 -29 28 0 23 4 28 29 30 18 1 31 -3
35 -13z m301 1 c16 -12 17 -16 6 -30 -7 -9 -24 -16 -37 -16 -18 0 -24 5 -24
23 0 39 21 48 55 23z m455 -26 c0 -22 -3 -40 -7 -40 -5 0 -18 18 -31 40 l-23
40 31 0 c28 0 30 -2 30 -40z m-236 -41 c-3 -5 -14 -9 -25 -9 -20 0 -24 15 -12
46 6 15 8 15 25 -6 10 -12 15 -26 12 -31z m-3556 -71 c3 -54 2 -58 -23 -64
-38 -9 -55 11 -55 66 0 56 5 62 45 58 29 -3 30 -5 33 -60z m25885 -3405 c-11
-31 -15 -35 -23 -22 -11 16 -1 39 16 39 8 0 11 -6 7 -17z m-27017 -4789 c52
-25 94 -96 94 -158 0 -81 -11 -85 -60 -20 -26 32 -44 67 -45 82 0 19 -6 28
-20 30 -19 4 -75 59 -75 75 0 13 71 7 106 -9z m22360 -4807 c-4 -19 -20 -29
-75 -49 -48 -17 -67 -21 -64 -11 3 7 9 11 13 8 5 -3 10 -1 12 3 5 13 110 83
116 78 2 -3 2 -16 -2 -29z m-5396 -516 c0 -5 -7 -12 -16 -15 -22 -9 -24 -8
-24 9 0 8 9 15 20 15 11 0 20 -4 20 -9z"/>
<path d="M22839 30029 c-98 -13 -117 -22 -123 -61 -5 -32 -26 -489 -26 -556
l0 -32 53 26 c100 50 453 265 515 315 71 57 122 121 122 155 0 31 -75 74 -196
114 -77 24 -233 53 -269 49 -5 -1 -40 -5 -76 -10z"/>
<path d="M13971 29064 c-125 -34 -260 -133 -306 -227 -29 -60 -55 -171 -55
-237 0 -118 48 -248 140 -385 l53 -78 173 463 c96 254 171 466 168 471 -8 14
-112 9 -173 -7z"/>
<path d="M24900 28054 c-157 -41 -289 -135 -347 -245 -25 -48 -28 -64 -28
-150 0 -93 1 -98 43 -183 58 -115 149 -214 241 -259 60 -29 74 -32 161 -32 73
0 110 5 162 23 134 47 292 175 379 308 40 61 92 174 84 182 -2 3 -23 -12 -47
-32 -121 -104 -337 -156 -443 -107 -22 10 -53 33 -70 50 -81 87 5 266 163 339
44 20 72 25 138 26 46 1 84 2 84 3 0 10 -116 58 -178 74 -91 23 -260 25 -342
3z"/>
<path d="M9116 26568 c-28 -44 -75 -154 -91 -213 -52 -197 -12 -414 99 -542
48 -55 145 -103 224 -110 123 -11 300 51 400 142 89 80 91 71 -44 207 -66 66
-135 133 -156 149 l-36 29 -37 -21 c-77 -46 -182 -3 -269 111 -48 63 -68 121
-70 202 0 38 -2 68 -3 68 -2 0 -9 -10 -17 -22z"/>
<path d="M28665 23737 c-68 -18 -150 -64 -186 -104 -112 -128 -132 -390 -42
-555 52 -96 124 -151 250 -195 67 -23 94 -26 193 -26 84 1 137 7 195 22 87 23
222 86 270 126 l30 25 -71 -6 c-180 -16 -377 64 -434 177 -39 75 -20 147 52
199 111 81 264 78 389 -6 29 -19 57 -37 62 -41 5 -3 -3 18 -19 48 -38 71 -173
204 -254 252 -133 77 -321 113 -435 84z"/>
<path d="M5715 16908 c-3 -13 -5 -59 -3 -103 3 -67 6 -80 21 -83 16 -3 17 5
15 99 -2 69 -7 104 -15 106 -7 3 -15 -6 -18 -19z"/>
<path d="M5821 16893 c-34 -42 -39 -75 -17 -128 17 -41 49 -59 88 -51 24 5 29
3 26 -12 -3 -13 -13 -17 -51 -15 -39 1 -47 -2 -47 -17 0 -35 87 -41 124 -7 25
21 26 27 27 140 1 65 -1 120 -4 123 -3 3 -14 1 -26 -5 -13 -7 -22 -8 -26 -1
-3 5 -19 10 -35 10 -21 0 -37 -10 -59 -37z m97 -25 c17 -17 15 -93 -3 -108 -8
-7 -25 -10 -39 -6 -51 13 -44 126 7 126 13 0 28 -5 35 -12z"/>
<path d="M6353 16913 c-13 -8 -23 -24 -23 -34 0 -23 1 -23 44 -2 29 13 38 14
51 3 23 -19 18 -27 -22 -33 -57 -10 -83 -32 -83 -72 0 -50 32 -69 104 -60 l56
7 0 83 c0 78 -2 85 -26 104 -31 25 -70 26 -101 4z m85 -125 c4 -21 -32 -41
-58 -33 -25 8 -26 31 -2 44 24 15 56 9 60 -11z"/>
<path d="M6534 16921 c-2 -2 -4 -49 -4 -103 0 -97 0 -99 23 -96 20 3 22 10 27
78 l5 75 30 0 30 0 5 -75 c4 -67 7 -75 25 -75 18 0 20 7 20 82 0 105 -11 118
-96 118 -33 0 -63 -2 -65 -4z"/>
<path d="M6978 16909 c-16 -11 -28 -30 -28 -40 0 -26 47 -69 75 -69 26 0 50
-24 40 -40 -9 -15 -48 -12 -71 5 -28 21 -46 19 -42 -7 2 -15 16 -29 41 -41 35
-16 39 -16 75 0 28 14 38 25 40 46 4 30 -21 67 -44 67 -23 0 -64 23 -64 36 0
23 32 24 66 3 32 -19 34 -19 41 -3 4 12 -2 24 -23 41 -36 28 -70 29 -106 2z"/>
<path d="M25452 16622 l-53 -3 3 -97 3 -97 59 0 c71 0 91 22 24 27 -39 3 -43
6 -46 31 -2 17 2 28 10 29 7 0 18 2 23 3 6 2 16 3 23 4 26 2 10 20 -20 23 -25
2 -34 8 -36 25 -2 16 3 24 20 28 14 4 28 5 34 4 18 -3 34 1 34 10 0 13 -19 16
-78 13z"/>
<path d="M25299 16613 c-3 -44 4 -180 10 -186 16 -16 22 13 23 101 1 73 -1 88
-15 90 -10 2 -17 0 -18 -5z"/>
<path d="M25580 16605 c0 -8 4 -24 9 -37 5 -13 14 -49 21 -81 10 -51 14 -58
33 -55 17 2 24 13 31 51 5 26 13 47 17 47 4 0 15 -21 25 -47 9 -27 21 -52 26
-57 15 -19 32 14 50 97 21 102 21 97 3 97 -17 0 -18 -3 -35 -67 -6 -24 -14
-43 -19 -43 -4 0 -12 24 -17 52 -13 76 -37 77 -58 4 -17 -57 -36 -74 -36 -32
0 52 -12 86 -31 86 -11 0 -19 -7 -19 -15z"/>
<path d="M25390 16287 c-51 -26 -67 -113 -29 -161 27 -35 86 -36 117 -3 12 13
22 26 22 30 0 14 -41 7 -46 -8 -7 -18 -45 -20 -62 -3 -7 7 -12 30 -12 53 0 23
5 46 12 53 17 17 55 15 62 -3 7 -19 36 -20 36 -2 0 35 -63 63 -100 44z"/>
<path d="M25588 16293 l-28 -4 0 -93 0 -93 49 -7 c49 -6 81 -1 81 14 0 5 -19
10 -42 12 -40 3 -43 5 -43 33 0 27 3 30 30 30 19 1 30 6 30 15 0 9 -11 14 -30
15 -25 0 -30 4 -30 25 0 22 5 25 43 28 43 3 55 15 26 26 -16 6 -40 6 -86 -1z"/>
<path d="M25185 16280 c-6 -10 -53 -131 -62 -162 -8 -25 23 -23 37 2 8 14 21
20 46 20 27 0 37 -5 41 -20 5 -18 43 -30 43 -14 0 10 -49 143 -60 165 -11 20
-35 25 -45 9z m38 -72 c7 -25 1 -38 -18 -38 -21 0 -27 17 -13 40 16 26 24 25
31 -2z"/>
<path d="M3075 15512 c-5 -4 -18 -17 -28 -29 -15 -17 -16 -25 -7 -43 9 -17 9
-29 0 -51 -16 -38 6 -75 48 -81 63 -9 98 34 73 89 -8 18 -9 29 -1 37 36 36
-42 110 -85 78z m55 -51 c0 -23 -19 -32 -42 -19 -24 12 -11 38 18 38 17 0 24
-6 24 -19z m-16 -67 c9 -3 16 -17 16 -30 0 -19 -5 -24 -25 -24 -30 0 -43 24
-25 45 14 17 13 17 34 9z"/>
<path d="M2748 15496 c-25 -19 -22 -38 5 -34 21 3 22 -1 25 -74 2 -60 6 -78
17 -78 12 0 15 19 15 100 0 97 -1 100 -22 100 -13 0 -31 -7 -40 -14z"/>
<path d="M2908 15496 c-10 -7 -18 -19 -18 -25 0 -7 8 -11 18 -9 15 3 18 -8 22
-72 4 -61 8 -75 23 -78 15 -3 17 7 17 97 0 98 -1 101 -22 101 -13 0 -31 -7
-40 -14z"/>
<path d="M32355 15410 c-15 -16 -15 -20 -3 -20 8 0 23 9 33 20 15 16 15 20 3
20 -8 0 -23 -9 -33 -20z"/>
<path d="M5393 15369 c-82 -40 -133 -121 -133 -207 0 -66 20 -110 74 -163 l44
-44 157 2 c153 1 157 2 196 28 21 15 39 35 39 44 0 10 7 26 15 37 22 28 20
163 -2 205 -23 41 -83 98 -105 99 -9 0 -20 5 -23 10 -3 6 -53 10 -113 10 -88
0 -114 -4 -149 -21z m264 -34 c48 -20 71 -41 94 -87 25 -48 24 -118 -1 -173
-34 -74 -96 -105 -212 -105 -153 0 -239 71 -238 197 1 62 35 119 92 155 38 23
53 27 136 27 62 1 105 -4 129 -14z"/>
<path d="M5392 15248 c-16 -16 -15 -48 2 -48 8 0 17 7 20 16 4 9 15 14 28 12
35 -5 27 -50 -19 -99 -55 -59 -51 -73 21 -77 34 -2 64 2 70 8 15 15 -8 28 -38
23 -37 -7 -40 15 -8 52 40 45 47 71 28 100 -13 19 -25 25 -54 25 -21 0 -43 -5
-50 -12z"/>
<path d="M5537 15254 c-14 -14 6 -24 49 -24 47 0 49 -1 34 -28 -29 -54 -60
-133 -55 -142 11 -18 24 -11 39 23 8 17 26 58 40 89 39 85 37 88 -37 88 -35 0
-67 -3 -70 -6z"/>
<path d="M32245 15300 c-11 -16 -23 -30 -27 -30 -5 0 -8 -7 -8 -15 0 -8 5 -15
10 -15 6 0 10 5 10 10 0 6 11 23 25 38 25 27 31 42 18 42 -5 0 -17 -14 -28
-30z"/>
<path d="M2815 15220 c4 -6 60 -10 136 -10 79 0 129 4 129 10 0 6 -52 10 -136
10 -87 0 -133 -4 -129 -10z"/>
<path d="M32117 15134 c-28 -34 -31 -58 -5 -36 18 15 51 72 41 72 -4 0 -21
-16 -36 -36z"/>
<path d="M32025 15017 c-37 -42 -53 -77 -37 -77 7 0 62 74 62 84 0 10 -14 6
-25 -7z"/>
<path d="M31785 14970 c-4 -6 3 -10 14 -10 25 0 27 6 6 13 -8 4 -17 2 -20 -3z"/>
<path d="M31840 14940 c20 -13 50 -13 50 0 0 6 -15 10 -32 10 -25 0 -29 -3
-18 -10z"/>
<path d="M27666 14831 c-30 -33 -17 -63 37 -89 34 -16 47 -27 45 -40 -4 -22
-41 -27 -58 -7 -16 19 -40 20 -40 1 0 -21 40 -46 72 -46 25 0 68 33 68 53 0
22 -22 45 -59 62 -27 12 -41 25 -41 37 0 23 36 24 62 2 16 -16 18 -16 24 0 17
43 -75 66 -110 27z"/>
<path d="M27859 14846 c-2 -2 -3 -41 -1 -85 3 -78 5 -82 32 -96 71 -37 107 -3
112 105 3 69 1 75 -17 75 -18 0 -21 -8 -25 -80 -4 -69 -8 -80 -24 -83 -31 -6
-46 26 -46 100 0 50 -4 68 -13 68 -8 0 -16 -2 -18 -4z"/>
<path d="M28082 14756 c3 -104 21 -132 26 -41 2 30 7 55 12 55 5 0 26 -27 46
-60 55 -89 69 -80 69 40 0 82 -2 95 -17 98 -15 3 -18 -5 -18 -52 0 -51 -2 -55
-17 -45 -10 6 -28 30 -39 53 -14 26 -29 42 -43 44 -21 3 -22 1 -19 -92z"/>
<path d="M28312 14753 l3 -98 53 0 c60 0 71 18 15 25 l-38 5 -3 83 c-2 65 -6
82 -18 82 -12 0 -14 -16 -12 -97z"/>
<path d="M28512 14761 c-37 -98 -35 -130 5 -87 34 37 81 34 96 -6 7 -19 22
-24 31 -9 3 5 -9 49 -28 98 -46 122 -60 122 -104 4z m72 3 c10 -27 7 -34 -19
-34 -27 0 -33 18 -13 38 16 16 25 15 32 -4z"/>
<path d="M28709 14848 c0 -2 -1 -45 -2 -95 -1 -63 2 -94 10 -97 18 -7 23 5 23
61 0 29 4 53 9 53 5 0 23 -25 40 -55 29 -52 54 -75 67 -62 3 3 6 47 6 98 1 86
0 94 -18 94 -16 0 -20 -8 -22 -47 -2 -27 -7 -48 -11 -48 -4 0 -22 23 -39 50
-17 28 -38 50 -47 50 -8 0 -15 -1 -16 -2z"/>
<path d="M28942 14753 l3 -98 30 -3 c94 -11 152 103 86 169 -24 24 -38 29 -76
29 l-46 0 3 -97z m90 50 c38 -35 7 -130 -40 -121 -14 3 -18 17 -20 71 -3 63
-2 67 19 67 12 0 31 -7 41 -17z"/>
<path d="M29272 14838 c3 -7 15 -14 27 -14 35 -2 40 -13 43 -94 4 -101 22 -96
26 8 2 45 7 83 12 83 6 1 15 3 20 4 6 1 15 3 20 4 6 0 10 6 10 11 0 6 -34 10
-81 10 -60 0 -80 -3 -77 -12z"/>
<path d="M29490 14773 c1 -90 12 -111 63 -120 54 -8 77 20 79 102 0 36 1 71 2
77 1 7 -7 14 -16 16 -15 3 -18 -7 -20 -74 -2 -59 -7 -79 -20 -88 -13 -8 -22
-6 -37 8 -17 16 -21 31 -21 88 0 54 -3 68 -15 68 -12 0 -15 -15 -15 -77z"/>
<path d="M29797 14844 c-4 -4 -7 -38 -7 -74 0 -78 -17 -105 -48 -76 -23 20
-42 21 -42 2 0 -19 39 -46 65 -46 12 0 32 11 44 24 19 20 22 32 19 96 -3 67
-13 92 -31 74z"/>
<path d="M29896 14841 c-3 -5 -4 -41 -2 -82 3 -61 7 -75 26 -91 29 -24 61 -23
94 3 24 19 26 26 26 100 0 72 -2 79 -20 79 -17 0 -19 -8 -22 -76 -2 -59 -7
-79 -20 -87 -32 -21 -48 8 -48 89 0 58 -3 74 -14 74 -8 0 -17 -4 -20 -9z"/>
<path d="M30117 14843 c-4 -3 -7 -46 -7 -95 0 -81 2 -88 20 -88 17 0 20 7 20
50 0 65 17 65 53 0 31 -56 39 -62 60 -54 12 4 15 24 14 97 -2 85 -4 92 -22 92
-16 0 -20 -6 -18 -30 2 -38 -5 -75 -15 -75 -4 0 -16 17 -27 38 -33 64 -58 85
-78 65z"/>
<path d="M30361 14824 c-15 -19 -21 -41 -21 -74 0 -42 4 -52 31 -74 37 -31 67
-33 103 -5 33 26 35 66 4 78 -25 9 -48 4 -48 -10 0 -5 7 -9 16 -9 24 0 14 -44
-12 -48 -30 -4 -58 32 -57 74 2 60 35 80 80 49 28 -20 41 -1 17 26 -27 30 -87
26 -113 -7z"/>
<path d="M30610 14805 c-11 -26 -20 -51 -20 -55 0 -5 -8 -25 -17 -45 -23 -48
-5 -69 28 -31 31 35 76 36 89 1 10 -26 40 -35 40 -12 0 6 -15 50 -33 97 -40
103 -58 112 -87 45z m54 -41 c10 -27 7 -34 -19 -34 -27 0 -33 18 -13 38 16 16
25 15 32 -4z"/>
<path d="M29150 14734 c0 -11 8 -14 32 -12 46 4 49 28 4 28 -26 0 -36 -4 -36
-16z"/>
<path d="M3780 13963 c-18 -23 -21 -37 -18 -82 5 -61 32 -90 81 -91 28 0 77
38 77 60 0 15 -40 12 -46 -4 -9 -23 -35 -28 -55 -10 -13 12 -19 31 -19 59 0
65 33 84 77 43 33 -31 51 -11 23 25 -30 38 -90 38 -120 0z"/>
<path d="M3980 13896 c0 -52 4 -97 8 -100 16 -9 30 10 34 44 3 33 5 35 38 35
33 0 35 -2 40 -40 3 -27 10 -40 20 -40 12 0 16 19 18 98 3 91 1 97 -17 97 -16
0 -20 -8 -23 -37 -3 -36 -5 -38 -38 -38 -32 0 -35 3 -40 35 -3 23 -11 36 -22
38 -16 3 -18 -6 -18 -92z"/>
<path d="M4236 13899 c-26 -66 -33 -96 -25 -103 7 -8 17 -3 33 17 13 16 32 27
46 27 14 0 33 -11 46 -27 30 -38 52 -20 29 23 -8 16 -15 34 -15 40 0 6 -7 26
-16 45 -43 95 -53 93 -98 -22z m74 -16 c0 -7 -9 -13 -20 -13 -21 0 -25 15 -13
46 6 16 7 16 20 -2 7 -10 13 -24 13 -31z"/>
<path d="M4420 13980 c0 -5 5 -11 10 -11 6 -1 15 -3 20 -4 6 -1 14 -3 20 -4 5
0 10 -38 12 -83 4 -104 22 -109 26 -8 3 81 8 92 43 94 12 0 24 7 27 14 3 9
-17 12 -77 12 -47 0 -81 -4 -81 -10z"/>
<path d="M4655 13970 c-27 -30 -13 -63 35 -85 47 -21 52 -27 44 -49 -8 -21
-33 -20 -55 0 -11 10 -25 14 -36 9 -16 -6 -15 -9 10 -31 35 -30 76 -31 106 -3
34 32 24 60 -32 89 -29 15 -46 31 -45 40 4 21 42 24 58 5 17 -21 30 -19 30 5
0 40 -83 55 -115 20z"/>
<path d="M4830 13977 c0 -7 7 -36 15 -63 8 -27 15 -61 15 -75 0 -29 23 -55 39
-44 6 3 17 27 24 52 18 61 33 65 41 9 8 -48 30 -76 47 -59 8 8 49 168 49 190
0 2 -7 3 -15 3 -18 0 -35 -39 -35 -81 0 -16 -5 -29 -10 -29 -12 0 -14 5 -30
68 -15 59 -40 54 -54 -11 -6 -27 -15 -48 -21 -48 -5 0 -14 22 -20 48 -7 32
-16 49 -28 51 -10 2 -17 -3 -17 -11z"/>
<path d="M5136 13959 c-37 -44 -36 -101 3 -140 18 -17 40 -29 56 -29 40 0 85
50 85 95 0 96 -88 141 -144 74z m88 -15 c23 -22 21 -87 -3 -108 -44 -40 -93
45 -57 99 19 29 38 32 60 9z"/>
<path d="M5340 13896 c0 -90 9 -122 26 -94 5 7 8 24 8 38 1 40 35 32 59 -12
19 -38 40 -48 52 -27 4 5 0 18 -9 28 -20 22 -21 55 -1 71 22 18 19 43 -8 68
-18 17 -36 22 -75 22 l-52 0 0 -94z m99 50 c18 -22 2 -46 -30 -46 -31 0 -45
19 -35 45 7 19 50 20 65 1z"/>
<path d="M5542 13978 c3 -7 18 -15 34 -18 29 -5 29 -6 34 -83 7 -104 24 -104
28 1 2 45 7 83 12 83 6 1 15 3 20 4 6 1 15 3 20 4 6 0 10 6 10 11 0 6 -34 10
-81 10 -60 0 -80 -3 -77 -12z"/>
<path d="M5762 13895 c3 -93 20 -135 26 -65 5 45 16 58 48 54 33 -3 36 -6 43
-51 4 -24 12 -38 21 -38 12 0 16 19 18 98 3 92 2 97 -18 97 -15 0 -20 -6 -20
-29 0 -36 -20 -53 -57 -49 -24 3 -28 8 -31 41 -2 24 -8 37 -18 37 -12 0 -14
-17 -12 -95z"/>
<path d="M32271 13434 c-31 -39 -29 -117 4 -149 14 -15 35 -25 52 -25 32 1 73
31 73 54 0 23 -27 20 -40 -4 -23 -43 -80 -7 -80 50 0 32 26 70 48 70 10 0 25
-9 35 -20 20 -24 37 -26 37 -5 0 25 -42 55 -76 55 -23 0 -39 -8 -53 -26z"/>
<path d="M32469 13458 c-5 -21 -2 -188 4 -188 4 0 10 0 15 0 4 -1 9 14 12 32
7 44 29 42 59 -4 39 -60 67 -49 35 13 -14 28 -14 32 0 48 9 10 16 29 16 43 0
39 -29 58 -88 58 -29 0 -52 -1 -53 -2z m100 -47 c8 -14 6 -23 -9 -36 -31 -28
-71 1 -56 40 8 21 53 19 65 -4z"/>
<path d="M28785 13271 c-73 -33 -115 -38 -177 -21 -31 8 -60 18 -64 23 -16 15
-33 6 -39 -23 -4 -16 -11 -32 -16 -35 -33 -21 19 -25 336 -25 l345 0 0 24 c0
62 -18 67 -117 36 -63 -19 -77 -18 -153 13 -14 6 -30 10 -37 8 -6 -1 -14 3
-18 9 -8 13 -12 12 -60 -9z"/>
<path d="M28460 13084 c0 -63 4 -81 23 -107 39 -54 128 -135 155 -142 15 -4
34 -12 42 -20 29 -25 204 -45 223 -26 6 6 21 11 33 11 13 0 25 4 28 9 4 5 26
16 51 24 25 9 70 37 100 64 l55 48 0 108 0 107 -355 0 -355 0 0 -76z m230 4
c27 -30 26 -43 -14 -98 -19 -27 -32 -51 -29 -54 3 -3 18 -2 34 1 22 4 29 2 29
-10 0 -9 -4 -18 -9 -22 -15 -9 -121 7 -121 18 0 5 20 32 45 58 25 26 45 55 45
64 0 21 -29 31 -51 17 -41 -26 -57 4 -17 32 31 22 64 20 88 -6z m150 -84 c0
-92 -1 -95 -22 -92 -20 3 -22 8 -19 65 2 53 0 63 -18 73 -12 6 -21 14 -21 19
0 10 63 40 73 34 4 -2 7 -47 7 -99z m177 84 c19 -18 23 -32 23 -83 0 -69 -19
-97 -65 -97 -47 0 -65 28 -65 99 0 50 4 67 20 83 26 26 58 25 87 -2z"/>
<path d="M28961 13071 c-32 -20 -21 -131 13 -131 18 0 26 22 26 75 0 45 -17
69 -39 56z"/>
<path d="M32255 13117 c-3 -7 -5 -52 -3 -98 2 -67 6 -84 18 -84 10 0 15 11 16
38 1 43 2 44 29 47 49 5 55 1 55 -39 0 -36 18 -59 34 -44 3 4 6 49 6 100 0 85
-2 94 -17 91 -12 -2 -20 -15 -23 -38 -4 -29 -9 -36 -33 -38 -36 -4 -59 15 -55
46 3 27 -19 43 -27 19z"/>
<path d="M32490 13036 c0 -95 5 -112 28 -97 9 5 12 34 10 97 -3 75 -6 89 -20
92 -16 3 -18 -6 -18 -92z"/>
<path d="M10574 12767 c-3 -8 -4 -52 -2 -98 2 -65 6 -84 18 -84 11 0 13 12 11
51 -1 29 2 55 8 58 5 3 26 -21 46 -54 25 -41 43 -60 56 -60 18 0 20 6 17 98
-2 78 -6 97 -18 97 -11 0 -16 -15 -20 -55 l-5 -55 -32 45 c-55 76 -68 85 -79
57z"/>
<path d="M10829 12751 c-61 -62 -25 -171 56 -171 49 0 75 34 75 99 0 43 -4 56
-26 76 -36 33 -69 31 -105 -4z m81 -21 c38 -38 16 -120 -31 -120 -38 0 -54 87
-22 122 21 23 28 23 53 -2z"/>
<path d="M11037 12773 c-4 -3 -7 -49 -7 -100 0 -85 2 -94 18 -91 11 2 17 13
17 33 0 23 5 31 21 33 16 2 26 -6 38 -32 11 -23 24 -36 36 -36 24 0 25 9 5 36
-19 25 -19 48 0 64 44 36 -7 100 -80 100 -23 0 -45 -3 -48 -7z m94 -39 c17
-21 0 -49 -32 -49 -20 0 -25 6 -27 33 -3 28 0 32 21 32 14 0 30 -7 38 -16z"/>
<path d="M11235 12770 c-3 -5 1 -12 9 -15 9 -3 23 -7 31 -10 12 -3 15 -22 15
-85 0 -72 2 -81 18 -78 14 3 18 17 22 83 5 73 7 80 28 85 13 3 24 10 25 15 3
14 -139 19 -148 5z"/>
<path d="M11457 12774 c-4 -4 -7 -50 -7 -101 0 -85 2 -94 18 -91 10 2 17 13
18 28 2 58 3 60 38 60 37 0 46 -12 46 -61 0 -23 5 -29 20 -29 20 0 21 5 18 98
-2 78 -6 97 -18 97 -10 0 -17 -13 -20 -35 -5 -32 -8 -35 -42 -38 -39 -3 -40
-3 -42 47 -1 24 -16 37 -29 25z"/>
<path d="M11687 12773 c-4 -3 -7 -48 -7 -100 0 -76 3 -93 15 -93 10 0 15 11
15 35 0 28 4 35 19 35 11 0 28 -15 40 -35 11 -19 27 -35 36 -35 20 0 19 15 -2
51 -16 26 -16 29 0 47 41 45 4 102 -66 102 -24 0 -47 -3 -50 -7z m87 -41 c15
-18 15 -20 -3 -36 -24 -21 -54 -17 -59 7 -9 46 30 64 62 29z"/>
<path d="M11894 12767 c-3 -8 -4 -52 -2 -98 3 -75 5 -84 22 -84 17 0 19 8 18
87 0 48 -3 92 -7 98 -9 14 -25 13 -31 -3z"/>
<path d="M12007 12773 c-4 -3 -7 -48 -7 -100 l0 -93 46 0 c37 0 51 5 76 30 27
28 30 36 25 77 -6 56 -44 92 -98 93 -20 0 -39 -3 -42 -7z m86 -40 c28 -31 30
-66 7 -96 -12 -15 -30 -27 -41 -27 -17 0 -19 8 -19 70 0 61 2 70 18 70 11 0
26 -8 35 -17z"/>
<path d="M12239 12754 c-19 -21 -24 -36 -24 -80 0 -47 4 -58 25 -74 56 -43
135 -14 128 47 -2 24 -8 28 -35 31 -37 4 -44 -12 -12 -28 16 -9 18 -14 8 -26
-14 -17 -51 -18 -67 -2 -20 20 -15 92 8 113 20 18 22 18 49 2 16 -9 32 -17 35
-17 13 0 5 28 -12 43 -28 26 -74 21 -103 -9z"/>
<path d="M12447 12774 c-4 -4 -7 -49 -7 -101 l0 -93 59 0 c62 0 90 15 48 25
-13 4 -31 6 -38 5 -33 -5 -40 1 -37 28 2 22 9 28 36 32 18 3 33 10 33 15 0 6
-15 12 -33 15 -25 4 -33 10 -33 25 0 16 8 21 45 25 25 3 44 10 43 15 -3 12
-105 19 -116 9z"/>
<path d="M22481 11796 c-34 -36 -20 -71 35 -92 29 -11 44 -23 44 -34 0 -28
-29 -32 -60 -10 -34 24 -51 9 -24 -21 22 -24 86 -26 109 -3 30 30 15 66 -37
93 -27 13 -48 29 -48 36 0 21 31 26 57 9 35 -22 52 -3 24 25 -28 28 -72 27
-100 -3z"/>
<path d="M22677 11813 c-4 -3 -7 -41 -7 -84 0 -69 2 -80 22 -93 33 -24 81 -20
107 8 19 20 22 32 19 97 -2 58 -6 74 -18 74 -11 0 -16 -14 -18 -60 -3 -90 -9
-105 -37 -105 -33 0 -47 30 -43 96 4 51 -9 84 -25 67z"/>
<path d="M22904 11812 c-5 -4 -11 -49 -12 -100 -3 -87 -2 -94 15 -90 15 3 18
12 15 55 -1 28 2 54 7 57 5 4 26 -21 46 -54 24 -40 43 -60 56 -60 17 0 19 8
19 93 0 98 -3 109 -26 100 -9 -3 -14 -22 -14 -56 0 -48 -1 -49 -19 -33 -10 9
-26 32 -37 51 -19 36 -35 48 -50 37z"/>
<path d="M23210 11807 c0 -8 14 -54 32 -101 26 -73 34 -87 51 -84 15 2 27 23
49 83 35 95 38 110 19 110 -16 0 -23 -12 -46 -77 -9 -27 -20 -48 -25 -48 -5 0
-17 28 -27 62 -12 42 -24 64 -36 66 -10 2 -17 -3 -17 -11z"/>
<path d="M23474 11783 c-21 -50 -54 -145 -54 -155 0 -16 30 -7 40 12 8 14 21
20 46 20 27 0 37 -5 41 -20 5 -20 43 -29 43 -9 0 6 -13 43 -29 82 -16 40 -31
80 -35 90 -9 29 -35 19 -52 -20z m51 -68 c0 -13 -8 -21 -22 -23 -17 -3 -23 2
-23 16 0 10 3 22 7 26 13 13 38 1 38 -19z"/>
<path d="M23836 11813 c-3 -3 -6 -48 -6 -100 l0 -93 60 0 c33 0 60 4 60 10 0
6 -13 10 -29 10 -57 0 -61 5 -61 90 0 73 -8 99 -24 83z"/>
<path d="M24017 11814 c-4 -4 -7 -49 -7 -101 l0 -93 65 0 c37 0 65 4 65 10 0
10 -12 13 -45 11 -11 -1 -29 5 -40 13 -27 20 -9 50 34 54 36 4 43 22 8 22 -13
0 -32 6 -42 14 -27 20 -5 44 43 48 20 2 36 8 35 13 -3 12 -105 19 -116 9z"/>
<path d="M24302 11808 c-5 -7 -13 -23 -16 -35 -10 -33 -40 -29 -53 7 -6 17
-18 30 -27 30 -22 0 -20 -13 7 -63 12 -23 24 -60 27 -82 3 -27 10 -41 23 -43
14 -3 17 4 17 32 0 21 13 60 30 92 28 52 31 74 11 74 -5 0 -13 -6 -19 -12z"/>
<path d="M23652 11718 l3 -92 35 -8 c38 -8 80 -1 80 13 0 5 -12 9 -26 9 -54 0
-64 14 -64 95 0 61 -3 75 -15 75 -13 0 -15 -15 -13 -92z"/>
<path d="M5109 9891 c-39 -39 -40 -96 -3 -140 56 -67 137 -26 138 70 1 44 -3
54 -27 75 -38 32 -72 31 -108 -5z m83 -18 c33 -30 14 -123 -25 -123 -42 0 -63
86 -30 122 20 22 31 23 55 1z"/>
<path d="M5341 9899 c-17 -14 -25 -33 -29 -67 -4 -41 0 -52 23 -80 49 -59 141
-35 133 35 -2 24 -8 28 -35 31 -19 2 -33 -1 -33 -7 0 -6 3 -11 8 -11 4 0 13
-4 21 -9 21 -13 -3 -41 -35 -41 -28 0 -44 27 -44 72 1 59 34 83 74 53 25 -19
36 -19 36 -2 0 44 -78 61 -119 26z"/>
<path d="M5592 9908 c-6 -7 -20 -42 -31 -78 -12 -36 -26 -73 -31 -82 -14 -25
-13 -28 11 -28 12 0 23 8 26 19 4 16 29 30 55 31 4 0 19 -12 32 -27 42 -45 47
-17 12 72 -43 110 -51 120 -74 93z m44 -107 c-4 -6 -16 -11 -27 -11 -13 0 -19
7 -19 23 0 13 3 27 7 31 10 10 47 -30 39 -43z"/>
<path d="M5854 9907 c-3 -8 -4 -52 -2 -98 2 -67 6 -84 18 -84 9 0 16 12 18 30
4 34 16 45 53 45 54 0 77 62 37 100 -26 24 -115 29 -124 7z m100 -32 c19 -20
10 -44 -20 -51 -32 -8 -44 2 -44 37 0 24 4 29 24 29 14 0 31 -7 40 -15z"/>
<path d="M6121 9902 c-5 -10 -20 -47 -32 -83 -12 -35 -26 -70 -31 -76 -7 -9
-5 -15 5 -19 20 -7 37 3 37 22 0 8 6 14 14 14 8 0 21 3 30 6 9 3 25 -4 39 -20
42 -45 59 -31 33 27 -16 39 -42 106 -50 130 -7 22 -33 22 -45 -1z m37 -72 c14
-23 8 -40 -13 -40 -19 0 -27 17 -20 40 8 25 17 25 33 0z"/>
<path d="M6284 9907 c-3 -8 -4 -52 -2 -98 2 -67 6 -84 18 -84 10 0 16 12 18
33 5 46 38 44 58 -3 9 -23 21 -35 34 -35 24 0 26 22 5 40 -17 14 -21 60 -5 60
5 0 13 11 16 26 11 41 -28 74 -88 74 -31 0 -50 -5 -54 -13z m97 -33 c17 -21 0
-49 -32 -49 -20 0 -25 6 -27 33 -3 28 0 32 21 32 14 0 30 -7 38 -16z"/>
<path d="M6500 9821 c0 -83 3 -101 15 -101 9 0 15 9 15 23 0 22 16 47 31 47 4
0 17 -16 29 -35 13 -20 30 -35 41 -35 25 0 24 8 -11 54 -38 50 -37 62 2 103
28 29 30 33 13 39 -14 6 -28 -3 -56 -34 -20 -23 -39 -42 -42 -42 -3 0 -7 17
-9 37 -2 20 -9 38 -15 41 -10 3 -13 -21 -13 -97z"/>
<path d="M10506 9232 c-2 -4 -6 -48 -7 -97 -2 -77 0 -90 15 -93 12 -3 16 4 16
32 0 50 33 50 57 1 10 -21 24 -35 35 -35 22 0 22 1 1 44 -15 33 -15 37 0 54
24 27 21 58 -9 81 -27 21 -98 29 -108 13z m75 -32 c23 -13 25 -46 3 -54 -36
-14 -54 -7 -54 22 0 43 14 51 51 32z"/>
<path d="M10728 9233 c-16 -4 -18 -17 -18 -99 l0 -94 65 0 c72 0 90 17 23 22
-40 3 -43 5 -43 33 0 27 4 30 33 33 21 2 32 9 32 19 0 11 -6 14 -23 10 -29 -8
-50 6 -45 29 2 13 13 20 33 22 17 2 37 5 45 8 13 4 13 6 0 14 -15 10 -71 11
-102 3z"/>
<path d="M10933 9228 c-52 -25 -40 -76 22 -101 30 -13 45 -25 45 -37 0 -28
-31 -33 -62 -10 -26 19 -29 19 -35 4 -16 -41 88 -62 122 -24 27 30 13 62 -40
88 -45 22 -58 45 -31 55 8 3 22 -1 33 -8 24 -19 43 -19 43 -1 0 18 -38 46 -60
45 -8 0 -25 -5 -37 -11z"/>
<path d="M11114 9229 c-9 -15 -13 -178 -5 -184 4 -2 31 -5 61 -6 43 -2 55 0
55 11 0 11 -9 14 -31 12 -41 -4 -68 21 -54 49 6 11 21 19 35 19 22 0 47 19 28
21 -54 5 -76 20 -66 46 3 8 22 13 50 13 31 0 43 4 41 13 -6 17 -104 22 -114 6z"/>
<path d="M11308 9233 c-16 -4 -18 -17 -18 -99 l0 -94 48 0 c59 1 91 23 98 72
9 54 -2 86 -39 108 -31 19 -53 23 -89 13z m77 -48 c32 -31 32 -69 0 -101 -37
-37 -50 -27 -53 41 -5 90 8 105 53 60z"/>
<path d="M11562 9228 c-11 -14 -72 -166 -72 -180 0 -16 30 -7 40 12 8 14 21
20 45 20 24 0 37 -6 45 -20 13 -25 45 -27 37 -2 -20 65 -57 156 -69 168 -12
12 -17 13 -26 2z m38 -100 c0 -14 -31 -21 -42 -10 -7 7 -6 17 2 33 12 22 13
22 26 4 8 -10 14 -23 14 -27z"/>
<path d="M17061 8138 c0 -7 15 -51 32 -98 45 -117 60 -116 105 4 23 63 30 92
23 99 -16 16 -33 -5 -51 -65 -8 -28 -20 -53 -25 -55 -6 -1 -19 25 -30 60 -13
41 -26 63 -37 65 -10 2 -18 -2 -17 -10z"/>
<path d="M17353 8142 c-12 -8 -73 -157 -73 -179 0 -21 23 -15 45 13 17 21 25
24 49 18 16 -4 31 -15 33 -25 3 -11 14 -19 24 -19 21 0 24 11 9 38 -5 9 -19
45 -31 79 -23 67 -38 86 -56 75z m30 -84 c7 -25 1 -38 -18 -38 -21 0 -27 17
-15 40 14 26 26 25 33 -2z"/>
<path d="M17517 8143 c-4 -3 -7 -48 -7 -100 0 -76 3 -93 15 -93 12 0 15 13 15
55 0 30 5 55 10 55 6 0 26 -25 46 -56 24 -37 41 -54 52 -52 15 3 17 17 17 98
0 78 -3 95 -15 95 -11 0 -16 -14 -18 -52 -2 -29 -6 -53 -10 -53 -9 0 -62 75
-62 88 0 5 -7 13 -16 16 -19 7 -19 7 -27 -1z"/>
<path d="M17840 8050 c0 -82 3 -100 15 -100 12 0 15 13 15 55 0 30 4 55 10 55
5 0 25 -25 45 -56 24 -38 41 -54 53 -52 15 3 17 16 17 98 0 78 -3 95 -15 95
-11 0 -16 -14 -18 -52 -2 -29 -6 -53 -10 -53 -4 0 -24 25 -45 55 -57 82 -67
75 -67 -45z"/>
<path d="M18070 8067 c0 -97 12 -117 72 -117 53 0 66 22 69 113 2 82 -1 93
-26 84 -12 -5 -15 -23 -15 -82 0 -61 -3 -77 -16 -82 -34 -13 -49 11 -54 87 -3
46 -10 75 -17 78 -10 3 -13 -18 -13 -81z"/>
<path d="M18278 8144 c-4 -3 9 -34 28 -69 19 -34 34 -77 34 -94 0 -21 5 -31
15 -31 10 0 15 10 15 31 0 17 14 58 30 91 34 66 36 78 15 78 -8 0 -24 -18 -35
-40 -23 -46 -31 -45 -54 5 -16 32 -34 44 -48 29z"/>
<path d="M18512 8134 c-38 -27 -26 -64 30 -94 27 -14 48 -31 48 -38 0 -21 -32
-26 -61 -9 -34 19 -49 5 -23 -24 23 -26 85 -26 109 1 28 31 13 68 -40 91 -45
20 -58 45 -30 55 8 4 26 -1 40 -10 31 -21 35 -20 35 4 0 38 -67 53 -108 24z"/>
<path d="M22898 8063 c-2 -5 -5 -48 -7 -96 -2 -81 -1 -88 15 -85 15 3 18 12
15 56 -1 28 1 52 6 52 13 0 58 -60 69 -92 7 -19 31 -31 45 -22 5 3 9 48 9 100
0 86 -2 95 -17 92 -14 -2 -19 -15 -21 -50 -4 -58 -20 -56 -57 8 -24 40 -48 56
-57 37z"/>
<path d="M23146 8045 c-21 -19 -26 -33 -26 -70 0 -38 5 -52 29 -76 16 -16 39
-29 51 -29 34 0 69 30 80 68 27 100 -63 173 -134 107z m86 -22 c32 -28 13
-123 -24 -123 -24 0 -48 34 -48 67 0 66 33 92 72 56z"/>
<path d="M23354 8057 c-3 -8 -4 -52 -2 -98 2 -67 6 -84 18 -84 9 0 15 10 16
25 1 60 25 64 59 10 14 -22 32 -40 40 -40 19 0 19 19 0 44 -19 25 -19 50 0 66
21 18 19 46 -7 70 -26 24 -115 29 -124 7z m100 -32 c10 -26 -5 -45 -35 -45
-26 0 -29 4 -29 30 0 26 3 30 29 30 16 0 31 -6 35 -15z"/>
<path d="M23550 8061 c0 -5 12 -11 28 -13 27 -3 27 -4 30 -85 3 -75 5 -83 22
-83 18 0 20 7 20 80 0 46 4 81 10 81 6 1 15 3 20 4 6 1 15 3 20 4 6 0 10 6 10
11 0 6 -33 10 -80 10 -44 0 -80 -4 -80 -9z"/>
<path d="M23775 8057 c-3 -7 -5 -52 -3 -98 2 -67 6 -84 18 -84 10 0 15 11 16
31 2 50 10 63 39 60 34 -4 43 -14 47 -56 2 -23 8 -35 18 -35 12 0 16 19 18 98
3 91 1 97 -17 97 -16 0 -20 -8 -23 -37 -3 -36 -5 -38 -40 -41 -39 -3 -40 -3
-42 47 -1 27 -23 40 -31 18z"/>
<path d="M22467 7734 c-4 -4 -7 -47 -7 -96 0 -80 2 -89 18 -86 9 2 16 10 14
18 -7 29 8 58 34 64 34 9 54 -9 54 -49 0 -30 20 -52 34 -38 3 4 6 49 6 100 0
85 -2 94 -17 91 -12 -2 -19 -14 -21 -36 -6 -59 -87 -56 -87 3 -1 28 -15 42
-28 29z"/>
<path d="M22716 7715 c-51 -47 -27 -153 39 -169 39 -10 82 18 94 61 28 101
-61 174 -133 108z m86 -22 c24 -21 23 -74 -1 -104 -18 -22 -19 -22 -45 -6 -20
13 -26 26 -26 53 0 67 32 93 72 57z"/>
<path d="M22927 7734 c-4 -4 -7 -44 -7 -89 0 -97 8 -108 74 -103 55 4 66 22
16 26 -19 2 -39 8 -45 13 -5 6 -10 42 -10 81 0 66 -10 90 -28 72z"/>
<path d="M23102 7643 l3 -98 58 -3 c46 -2 57 0 57 13 0 10 -10 15 -33 15 -48
0 -57 15 -57 97 0 59 -3 73 -15 73 -13 0 -15 -15 -13 -97z"/>
<path d="M23277 7734 c-6 -7 30 -81 44 -90 5 -3 9 -25 9 -50 0 -37 3 -44 20
-44 16 0 20 7 20 35 0 20 13 60 30 92 17 31 30 57 30 59 0 2 -9 4 -20 4 -13 0
-25 -12 -34 -35 -8 -19 -19 -35 -25 -35 -6 0 -18 16 -27 35 -15 33 -32 43 -47
29z"/>
<path d="M23483 7708 c11 -73 31 -153 40 -160 19 -12 36 4 42 42 4 21 12 46
19 56 13 17 14 17 19 -2 3 -10 8 -35 11 -56 7 -39 28 -55 45 -34 6 7 15 35 21
62 5 27 14 64 19 82 8 27 7 34 -6 39 -19 7 -33 -13 -33 -52 0 -30 -15 -64 -23
-55 -3 3 -11 28 -19 55 -21 76 -42 67 -62 -27 -10 -43 -22 -33 -35 27 -9 37
-17 55 -28 55 -11 0 -14 -8 -10 -32z"/>
<path d="M23785 7715 c-20 -19 -25 -34 -25 -74 0 -43 4 -53 31 -75 17 -14 37
-26 44 -26 54 0 102 66 91 126 -13 68 -94 97 -141 49z m83 -17 c7 -7 12 -33
12 -60 0 -57 -23 -77 -58 -52 -17 11 -22 25 -22 58 0 44 13 66 40 66 9 0 21
-5 28 -12z"/>
<path d="M24006 7715 c-51 -47 -27 -153 39 -169 39 -10 82 18 94 61 28 101
-61 174 -133 108z m86 -22 c24 -21 23 -74 -1 -104 -18 -22 -19 -22 -45 -6 -20
13 -26 26 -26 53 0 67 32 93 72 57z"/>
<path d="M24214 7727 c-3 -8 -4 -52 -2 -98 l3 -84 29 -3 c36 -4 83 15 101 42
8 11 15 40 15 63 0 58 -37 93 -98 93 -26 0 -45 -5 -48 -13z m106 -53 c18 -47
-19 -114 -55 -101 -19 8 -22 133 -2 140 19 7 47 -12 57 -39z"/>
<path d="M28381 7372 c-11 -8 -13 -42 -12 -158 1 -82 5 -152 10 -157 5 -5 43
-8 85 -5 62 3 79 7 100 27 32 30 35 87 7 122 -18 22 -18 23 1 55 14 23 16 38
9 55 -17 46 -48 63 -119 67 -37 1 -73 -1 -81 -6z m134 -52 c37 -31 1 -80 -57
-80 l-38 0 0 51 0 52 40 -6 c23 -3 47 -11 55 -17z m3 -136 c48 -33 11 -94 -57
-94 -22 0 -42 3 -44 8 -2 4 -2 28 1 55 4 47 4 47 41 47 20 0 47 -7 59 -16z"/>
<path d="M28640 7192 c0 -85 3 -101 20 -120 26 -28 59 -36 92 -23 14 5 35 7
45 5 35 -10 44 17 41 127 l-3 104 -27 3 -28 3 0 -88 c0 -97 -7 -113 -51 -113
-35 0 -39 13 -39 116 0 83 0 84 -25 84 -25 0 -25 0 -25 -98z"/>
<path d="M22825 6339 c-154 -81 -180 -254 -57 -373 l41 -39 222 -1 221 -1 39
33 c22 19 39 39 39 47 0 7 7 26 15 41 22 43 19 145 -5 192 -52 99 -112 122
-320 122 -139 0 -160 -2 -195 -21z m420 -47 c11 -8 32 -31 48 -52 23 -32 27
-48 27 -104 0 -74 -13 -111 -49 -144 -49 -44 -84 -52 -240 -52 -124 0 -153 3
-190 20 -137 62 -149 247 -21 328 l43 27 181 -5 c127 -4 187 -9 201 -18z"/>
<path d="M22840 6212 c-14 -11 -20 -24 -16 -31 6 -9 11 -9 21 -1 18 15 25 -8
25 -91 0 -55 3 -69 15 -69 13 0 15 16 13 102 -3 113 -12 127 -58 90z"/>
<path d="M22970 6215 c0 -11 12 -15 45 -15 25 0 45 -2 45 -5 0 -3 -9 -25 -20
-47 -11 -23 -20 -46 -20 -52 0 -5 -7 -17 -16 -27 -17 -18 -13 -49 5 -49 6 0
20 21 32 48 12 26 30 65 40 86 33 69 28 76 -46 76 -51 0 -65 -3 -65 -15z"/>
<path d="M23142 6207 c-32 -34 -32 -134 1 -165 56 -52 117 -9 117 83 0 92 -66
138 -118 82z m76 -78 c2 -55 0 -68 -14 -73 -29 -11 -44 13 -44 68 0 54 13 79
40 74 11 -2 16 -20 18 -69z"/>
<path d="M17680 5139 c-25 -28 -47 -52 -49 -54 -2 -3 4 -14 14 -25 23 -25 24
-74 2 -98 -12 -13 -17 -37 -17 -84 0 -88 13 -112 91 -171 32 -24 45 -27 112
-27 51 0 88 -6 111 -17 33 -15 37 -15 54 0 14 13 38 17 98 17 88 0 140 21 178
73 28 38 35 157 12 211 -20 48 -20 75 0 97 19 21 11 39 -40 88 -35 34 -36 34
-78 21 -24 -8 -49 -18 -55 -23 -7 -5 -25 -6 -40 -2 -16 5 -34 9 -41 11 -8 1
-22 10 -33 20 -17 16 -21 15 -75 -10 -38 -18 -66 -25 -83 -21 -43 10 -81 27
-81 36 0 24 -40 3 -80 -42z m90 -14 c17 -20 131 -20 170 0 25 13 32 13 64 0
41 -17 123 -20 162 -4 21 7 34 7 51 -2 31 -17 37 -42 18 -79 -15 -30 -15 -33
4 -66 16 -27 21 -52 21 -108 0 -66 -2 -74 -27 -97 -64 -57 -80 -60 -262 -60
-185 0 -216 7 -270 65 -36 38 -42 131 -12 181 22 38 28 80 11 90 -19 12 -10
49 17 72 31 27 36 28 53 8z"/>
<path d="M17787 5004 c-33 -18 -37 -47 -4 -42 21 3 22 -1 25 -74 2 -60 6 -78
17 -78 12 0 15 19 15 99 0 108 -6 119 -53 95z"/>
<path d="M17932 5004 c-19 -13 -22 -24 -22 -88 0 -83 15 -106 67 -106 47 0 63
26 63 102 0 55 -4 68 -23 86 -27 26 -54 28 -85 6z m72 -40 c11 -27 6 -90 -7
-108 -7 -10 -22 -17 -33 -14 -15 3 -20 13 -22 57 -2 29 -1 60 2 67 7 19 52 18
60 -2z"/>
<path d="M18085 4990 c-17 -19 -17 -20 9 -29 25 -10 26 -14 26 -81 0 -63 2
-70 20 -70 19 0 20 7 20 100 l0 100 -28 0 c-16 0 -37 -9 -47 -20z"/>
<path d="M11703 4502 c-7 -4 -12 -41 -14 -97 l-2 -90 54 -6 c56 -6 69 -4 69
11 0 5 -19 10 -42 12 -37 3 -44 7 -46 27 -4 27 12 41 46 41 15 0 22 5 19 13
-4 11 -9 13 -50 16 -13 1 -17 8 -15 24 2 18 10 23 46 25 28 2 42 7 39 15 -4
14 -86 21 -104 9z"/>
<path d="M12133 4486 c-25 -21 -28 -31 -28 -81 0 -48 4 -60 24 -76 31 -25 85
-25 111 1 11 11 20 25 20 30 0 17 -29 11 -51 -11 -18 -18 -23 -19 -42 -6 -18
11 -22 24 -22 62 0 38 4 51 22 62 19 13 24 12 42 -6 26 -26 41 -27 41 -1 0 20
-45 50 -74 50 -8 0 -28 -11 -43 -24z"/>
<path d="M12698 4494 c-36 -19 -48 -43 -48 -94 0 -68 60 -108 125 -84 21 8 45
56 45 89 0 38 -24 79 -55 93 -32 15 -34 15 -67 -4z m70 -36 c7 -7 12 -30 12
-53 0 -46 -13 -65 -47 -65 -25 0 -43 26 -43 65 0 55 45 86 78 53z"/>
<path d="M11870 4405 c0 -88 1 -95 20 -95 17 0 20 7 20 50 0 65 17 65 53 -1
23 -39 34 -49 50 -47 21 3 22 8 22 93 0 87 -1 90 -23 93 -22 3 -24 0 -22 -35
6 -90 -4 -94 -44 -18 -22 43 -34 55 -52 55 -24 0 -24 -2 -24 -95z"/>
<path d="M12320 4404 c0 -86 2 -95 18 -92 14 3 17 17 20 96 3 87 2 92 -18 92
-19 0 -20 -6 -20 -96z"/>
<path d="M12430 4404 c0 -86 2 -95 18 -92 13 2 18 15 20 51 2 26 7 47 12 47 4
0 22 -22 39 -50 20 -33 38 -50 51 -50 19 0 20 7 20 95 0 88 -1 95 -20 95 -17
0 -20 -7 -20 -49 0 -51 -15 -76 -27 -44 -16 45 -54 93 -73 93 -19 0 -20 -7
-20 -96z"/>
<path d="M16636 4231 c-30 -32 -17 -63 37 -88 47 -23 61 -48 31 -60 -9 -3 -30
2 -46 11 -33 20 -48 14 -32 -12 26 -41 101 -40 123 1 18 34 2 60 -53 86 -32
15 -44 25 -40 36 8 20 43 19 66 -1 16 -16 18 -15 24 1 16 41 -77 63 -110 26z"/>
<path d="M16829 4243 c-3 -31 1 -186 5 -190 12 -12 26 11 26 42 0 39 21 55 60
46 20 -5 26 -15 30 -44 3 -21 8 -38 13 -37 4 0 10 0 15 0 4 0 7 42 7 92 0 79
-3 93 -17 96 -13 2 -17 -5 -20 -35 -3 -37 -4 -38 -43 -38 -39 0 -40 1 -43 38
-2 24 -8 37 -18 37 -8 0 -14 -3 -15 -7z"/>
<path d="M17060 4155 c0 -91 1 -95 23 -101 34 -8 102 -1 100 11 -2 6 -21 11
-43 13 -37 3 -40 5 -40 33 0 29 6 33 48 29 14 -1 22 4 22 14 0 9 -12 16 -32
18 -25 2 -34 8 -36 26 -3 20 7 27 32 23 18 -4 56 9 56 19 0 6 -29 10 -65 10
l-65 0 0 -95z"/>
<path d="M17246 4242 c-3 -4 -5 -47 -5 -94 1 -62 4 -88 14 -92 19 -7 25 3 25
41 0 46 23 43 55 -7 14 -22 29 -40 35 -40 18 0 21 20 6 42 -20 28 -20 52 -1
68 21 17 19 46 -5 70 -15 15 -33 20 -69 20 -28 0 -52 -4 -55 -8z m82 -28 c27
-19 28 -40 3 -54 -29 -15 -51 -2 -51 29 0 44 12 50 48 25z"/>
<path d="M17462 4155 c3 -104 21 -131 26 -39 l3 55 19 -24 c10 -13 22 -35 25
-50 4 -14 13 -31 20 -37 11 -9 18 -1 34 36 12 25 21 50 21 55 0 5 4 9 9 9 6 0
11 -24 13 -52 2 -39 7 -53 18 -53 12 0 15 17 15 95 0 94 0 95 -25 98 -25 3
-38 -18 -57 -95 -10 -42 -29 -26 -57 50 -15 38 -22 47 -42 47 -25 0 -25 0 -22
-95z"/>
<path d="M17786 4242 c-9 -15 -66 -172 -66 -183 0 -20 31 -8 40 16 13 34 58
34 88 0 37 -42 53 -19 28 38 -7 18 -22 55 -33 82 -18 47 -44 68 -57 47z m32
-74 c20 -20 14 -38 -13 -38 -26 0 -29 7 -19 34 7 19 16 20 32 4z"/>
<path d="M17955 4237 c-3 -7 -5 -52 -3 -98 2 -67 6 -84 18 -84 11 0 15 12 15
52 0 44 9 75 18 62 1 -2 20 -30 40 -62 21 -32 43 -57 50 -54 8 2 13 36 15 100
3 92 2 97 -18 97 -17 0 -20 -6 -20 -50 0 -27 -4 -50 -9 -50 -9 0 -36 37 -56
75 -13 24 -43 32 -50 12z"/>
<path d="M18313 4235 c-51 -36 -50 -135 2 -169 34 -23 59 -20 94 10 27 22 31
32 31 74 0 41 -5 54 -27 75 -31 28 -68 32 -100 10z m77 -34 c30 -56 -5 -135
-49 -111 -21 11 -26 31 -22 80 5 49 50 69 71 31z"/>
<path d="M18550 4223 c-6 -16 -14 -37 -19 -48 -32 -72 -41 -109 -31 -119 8 -8
17 -4 32 17 27 37 74 38 88 2 9 -23 29 -33 42 -20 5 5 -24 88 -57 163 -18 39
-42 41 -55 5z m50 -75 c0 -13 -8 -18 -25 -18 -30 0 -30 3 -8 36 12 19 18 22
24 12 5 -7 9 -21 9 -30z"/>
<path d="M18725 4237 c-3 -7 -5 -52 -3 -98 2 -67 6 -84 18 -84 9 0 16 11 18
27 6 49 26 52 56 8 14 -22 33 -40 41 -40 22 0 19 14 -15 66 -31 50 -30 63 9
98 26 24 27 36 2 36 -11 0 -32 -16 -47 -35 -34 -45 -55 -46 -52 -4 3 33 -18
52 -27 26z"/>
<path d="M18947 4232 c-32 -35 -17 -62 51 -96 21 -11 32 -23 30 -34 -4 -22
-41 -27 -58 -7 -16 19 -40 20 -40 1 0 -18 43 -46 72 -46 34 0 68 27 68 55 0
25 -36 56 -78 70 -14 4 -22 13 -20 23 5 24 36 27 59 6 15 -13 22 -15 31 -6 9
9 7 16 -7 32 -24 26 -85 27 -108 2z"/>
<path d="M22000 3322 c-36 -29 -21 -68 36 -92 33 -15 45 -25 42 -37 -4 -23
-41 -28 -58 -8 -16 19 -40 20 -40 1 0 -20 39 -46 70 -46 36 0 70 27 70 55 0
25 -36 56 -78 70 -14 4 -22 13 -20 23 4 22 41 27 58 7 17 -20 30 -19 30 3 0
43 -68 58 -110 24z"/>
</g>
</svg>
